<?xml version="1.0" encoding="UTF-8"?>
<svg version="1.1" xmlns="http://www.w3.org/2000/svg" width="1920" height="1080">
<path d="M0 0 C1.36640022 -0.00187325 2.7327999 -0.00417598 4.09919876 -0.00686532 C7.81654367 -0.01292635 11.53386591 -0.01285653 15.25121462 -0.01167095 C19.27526795 -0.01146548 23.29931427 -0.01699954 27.32336426 -0.02172852 C35.19370681 -0.03000453 43.06404187 -0.03278198 50.93438841 -0.03334089 C57.33836997 -0.03381755 63.74234909 -0.03587975 70.14632988 -0.03904152 C88.34027137 -0.04784014 106.53420698 -0.05246219 124.72815061 -0.05171105 C126.19676734 -0.05165111 126.19676734 -0.05165111 127.6950531 -0.05158997 C128.67533948 -0.05154909 129.65562585 -0.0515082 130.66561788 -0.05146609 C146.53954581 -0.05105995 162.41344998 -0.06062346 178.28737105 -0.07472833 C194.62334013 -0.08912811 210.95929766 -0.09599652 227.29527324 -0.09513456 C236.45184931 -0.09480381 245.60840047 -0.09749707 254.76497078 -0.10831261 C262.56308642 -0.1174652 270.36116588 -0.11955414 278.1592846 -0.11280318 C282.12937538 -0.10956168 286.09939692 -0.10939428 290.0694809 -0.11815643 C361.11803866 -0.26477158 361.11803866 -0.26477158 386.9672699 22.13371277 C415.58147003 50.8123593 415.13009792 90.71319628 415.09799457 128.48631859 C415.09571141 132.46729576 415.09923446 136.4482687 415.10197449 140.429245 C415.10640021 148.20759798 415.10547 155.98594127 415.10256185 163.76429462 C415.1002952 170.0910074 415.10000074 176.41771748 415.10108566 182.74443054 C415.10131551 184.09972716 415.10131551 184.09972716 415.10155001 185.48240352 C415.10186976 187.31842327 415.10219397 189.15444303 415.1025226 190.99046278 C415.10536802 208.17061394 415.10210509 225.35075974 415.09672223 242.53091002 C415.09225505 257.24356569 415.09303124 271.95621348 415.09764099 286.66886902 C415.10300333 303.79131831 415.10509342 320.91376291 415.10202873 338.03621292 C415.10171021 339.86514028 415.10139584 341.69406764 415.10108566 343.522995 C415.10093139 344.42265197 415.10077711 345.32230894 415.10061816 346.24922824 C415.09975798 352.56175776 415.1012051 358.87428429 415.10356522 365.18681335 C415.10638187 372.88907715 415.1055858 380.59133076 415.10028447 388.29359341 C415.09767253 392.21660865 415.09659946 396.13960698 415.09993362 400.06262207 C415.13077027 439.80415498 415.13077027 439.80415498 411.7172699 455.25871277 C411.38130798 456.80244568 411.38130798 456.80244568 411.03855896 458.37736511 C407.22636371 475.35045604 401.16917325 490.29439118 387.9672699 502.13371277 C386.82451599 503.34027527 386.82451599 503.34027527 385.65867615 504.57121277 C364.95399292 524.28423483 330.72264305 526.30087276 303.93453979 526.26742554 C302.56813958 526.26929879 301.20173989 526.27160152 299.83534104 526.27429086 C296.11799612 526.28035189 292.40067389 526.28028206 288.68332517 526.27909648 C284.65927185 526.27889102 280.63522553 526.28442508 276.61117554 526.28915405 C268.74083299 526.29743006 260.87049793 526.30020752 253.00015139 526.30076643 C246.59616982 526.30124309 240.19219071 526.30330528 233.78820992 526.30646706 C215.59426843 526.31526568 197.40033281 526.31988773 179.20638918 526.31913658 C178.22731136 526.31909663 177.24823354 526.31905667 176.23948669 526.3190155 C175.25920032 526.31897462 174.27891394 526.31893374 173.26892192 526.31889162 C157.39499399 526.31848548 141.52108981 526.328049 125.64716875 526.34215387 C109.31119966 526.35655365 92.97524214 526.36342206 76.63926655 526.36256009 C67.48269049 526.36222934 58.32613933 526.36492261 49.16956902 526.37573814 C41.37145337 526.38489074 33.57337391 526.38697967 25.7752552 526.38022872 C21.80516442 526.37698722 17.83514288 526.37681982 13.8650589 526.38558197 C-57.18349886 526.53219712 -57.18349886 526.53219712 -83.0327301 504.13371277 C-111.64693024 475.45506623 -111.19555812 435.55422926 -111.16345477 397.78110695 C-111.16117162 393.80012978 -111.16469466 389.81915684 -111.16743469 385.83818054 C-111.17186042 378.05982755 -111.17093021 370.28148427 -111.16802205 362.50313091 C-111.1657554 356.17641814 -111.16546095 349.84970806 -111.16654587 343.522995 C-111.1666991 342.61946391 -111.16685233 341.71593283 -111.16701021 340.78502202 C-111.16732996 338.94900227 -111.16765418 337.11298251 -111.1679828 335.27696276 C-111.17082823 318.0968116 -111.1675653 300.9166658 -111.16218244 283.73651552 C-111.15771525 269.02385984 -111.15849145 254.31121206 -111.1631012 239.59855652 C-111.16846354 222.47610723 -111.17055362 205.35366263 -111.16748893 188.23121262 C-111.16717041 186.40228526 -111.16685604 184.5733579 -111.16654587 182.74443054 C-111.16639159 181.84477357 -111.16623732 180.9451166 -111.16607837 180.0181973 C-111.16521819 173.70566777 -111.16666531 167.39314124 -111.16902542 161.08061218 C-111.17184208 153.37834839 -111.171046 145.67609477 -111.16574468 137.97383213 C-111.16313273 134.05081688 -111.16205966 130.12781855 -111.16539383 126.20480347 C-111.19623047 86.46327055 -111.19623047 86.46327055 -107.7827301 71.00871277 C-107.55875549 69.9795575 -107.33478088 68.95040222 -107.10401917 67.89006042 C-103.29182391 50.91696949 -97.23463346 35.97303436 -84.0327301 24.13371277 C-83.27089417 23.32933777 -82.50905823 22.52496277 -81.72413635 21.69621277 C-61.01945312 1.98319071 -26.78810325 -0.03344723 0 0 Z " fill="#0B0C10" transform="translate(230.03273010253906,276.8662872314453)"/>
<path d="M0 0 C1.74135223 0.00022659 1.74135223 0.00022659 3.5178833 0.00045776 C4.76591736 0.01078033 6.01395142 0.02110291 7.29980469 0.03173828 C9.22237091 0.03598312 9.22237091 0.03598312 11.18377686 0.04031372 C14.58357607 0.0479329 17.98320315 0.06756644 21.38293457 0.08972168 C24.85520092 0.1102172 28.32749522 0.11932334 31.79980469 0.12939453 C38.60716686 0.15081412 45.414415 0.18492922 52.22167969 0.22705078 C52.22167969 0.88705078 52.22167969 1.54705078 52.22167969 2.22705078 C54.69667969 2.72205078 54.69667969 2.72205078 57.22167969 3.22705078 C57.22167969 4.54705078 57.22167969 5.86705078 57.22167969 7.22705078 C57.88167969 7.22705078 58.54167969 7.22705078 59.22167969 7.22705078 C59.71667969 12.17705078 59.71667969 12.17705078 60.22167969 17.22705078 C60.88167969 17.22705078 61.54167969 17.22705078 62.22167969 17.22705078 C65.66587103 26.63707356 65.66587103 26.63707356 65.22167969 31.22705078 C65.88167969 31.22705078 66.54167969 31.22705078 67.22167969 31.22705078 C67.62 32.76425781 67.62 32.76425781 68.02636719 34.33251953 C68.38296997 35.69324067 68.7397502 37.05391531 69.09667969 38.41455078 C69.35771484 39.42485352 69.35771484 39.42485352 69.62402344 40.45556641 C70.39684344 43.38942012 71.21918184 46.22080616 72.34667969 49.03955078 C73.3564886 51.56407307 73.375643 53.53269273 73.22167969 56.22705078 C73.88167969 56.22705078 74.54167969 56.22705078 75.22167969 56.22705078 C76.21167969 59.19705078 76.21167969 59.19705078 77.22167969 62.22705078 C78.21167969 61.89705078 79.20167969 61.56705078 80.22167969 61.22705078 C80.22167969 59.57705078 80.22167969 57.92705078 80.22167969 56.22705078 C80.88167969 56.22705078 81.54167969 56.22705078 82.22167969 56.22705078 C82.2590625 55.50259766 82.29644531 54.77814453 82.33496094 54.03173828 C82.7273866 48.26077263 83.53516487 44.38515923 86.22167969 39.22705078 C87.05360113 35.58485812 87.66311185 31.92016992 88.22167969 28.22705078 C88.88167969 28.22705078 89.54167969 28.22705078 90.22167969 28.22705078 C90.22167969 26.57705078 90.22167969 24.92705078 90.22167969 23.22705078 C90.88167969 23.22705078 91.54167969 23.22705078 92.22167969 23.22705078 C92.55167969 19.59705078 92.88167969 15.96705078 93.22167969 12.22705078 C93.88167969 12.22705078 94.54167969 12.22705078 95.22167969 12.22705078 C95.26292969 10.98955078 95.30417969 9.75205078 95.34667969 8.47705078 C95.45447695 5.24313301 96.05644368 4.38400319 98.44238281 2.11767578 C103.53238305 -1.11153185 109.6948943 -0.26032247 115.49511719 -0.16357422 C117.41343857 -0.15508453 117.41343857 -0.15508453 119.37051392 -0.14642334 C122.7542311 -0.1278677 126.13685061 -0.09199447 129.52026367 -0.04760742 C132.97923344 -0.00653089 136.43831705 0.01161391 139.89746094 0.03173828 C146.67250173 0.07578825 153.44702739 0.14268924 160.22167969 0.22705078 C160.22167969 0.88705078 160.22167969 1.54705078 160.22167969 2.22705078 C161.54167969 2.22705078 162.86167969 2.22705078 164.22167969 2.22705078 C164.22167969 50.40705078 164.22167969 98.58705078 164.22167969 148.22705078 C163.56167969 148.22705078 162.90167969 148.22705078 162.22167969 148.22705078 C162.22167969 148.88705078 162.22167969 149.54705078 162.22167969 150.22705078 C155.99210389 150.30294846 149.76264673 150.35558582 143.53271484 150.3918457 C141.41222681 150.40695723 139.29177015 150.42744718 137.17138672 150.45336914 C134.12817658 150.48964864 131.08537866 150.50675321 128.04199219 150.52001953 C126.61380661 150.54324532 126.61380661 150.54324532 125.1567688 150.56694031 C124.27600677 150.5671669 123.39524475 150.56739349 122.48779297 150.56762695 C121.32197189 150.57761971 121.32197189 150.57761971 120.13259888 150.58781433 C119.50199554 150.46876236 118.87139221 150.34971039 118.22167969 150.22705078 C115.75018951 146.51981551 115.91509825 143.65179122 115.90283203 139.35913086 C115.89278641 138.55889999 115.88274078 137.75866913 115.87239075 136.93418884 C115.84149232 134.28832723 115.82450521 131.64256711 115.80761719 128.99658203 C115.78891089 127.16240054 115.76933788 125.3282277 115.74893188 123.49406433 C115.69754783 118.66575211 115.65795571 113.83741197 115.62078857 109.00897217 C115.58078822 104.08224546 115.5296778 99.15563553 115.47949219 94.22900391 C115.38265863 84.56176815 115.29827764 74.89446656 115.22167969 65.22705078 C114.56167969 68.19705078 113.90167969 71.16705078 113.22167969 74.22705078 C112.56167969 74.22705078 111.90167969 74.22705078 111.22167969 74.22705078 C111.14820313 75.09716797 111.14820313 75.09716797 111.07324219 75.98486328 C110.62518564 80.6662817 109.92365869 84.80190537 108.22167969 89.22705078 C107.56167969 89.22705078 106.90167969 89.22705078 106.22167969 89.22705078 C106.14820313 90.20544922 106.14820313 90.20544922 106.07324219 91.20361328 C105.64925739 96.15984931 105.06502396 100.55724529 103.22167969 105.22705078 C102.56167969 105.22705078 101.90167969 105.22705078 101.22167969 105.22705078 C100.89167969 108.52705078 100.56167969 111.82705078 100.22167969 115.22705078 C99.56167969 115.22705078 98.90167969 115.22705078 98.22167969 115.22705078 C98.26292969 115.92830078 98.30417969 116.62955078 98.34667969 117.35205078 C98.20407679 120.6319174 97.31456225 123.14126473 96.22167969 126.22705078 C95.86061872 127.88793123 95.51705796 129.55324059 95.22167969 131.22705078 C94.56167969 131.22705078 93.90167969 131.22705078 93.22167969 131.22705078 C93.03605469 132.99048828 93.03605469 132.99048828 92.84667969 134.78955078 C92.35732034 138.76825504 91.41615919 142.40471637 90.22167969 146.22705078 C89.56167969 146.22705078 88.90167969 146.22705078 88.22167969 146.22705078 C88.22167969 147.21705078 88.22167969 148.20705078 88.22167969 149.22705078 C83.6495473 151.51311698 77.30401216 150.45721934 72.28417969 150.47705078 C70.3322168 150.50798828 70.3322168 150.50798828 68.34082031 150.53955078 C67.09623047 150.54470703 65.85164063 150.54986328 64.56933594 150.55517578 C63.424729 150.56452148 62.28012207 150.57386719 61.10083008 150.58349609 C58.22167969 150.22705078 58.22167969 150.22705078 56.35693359 148.84790039 C54.87042004 146.72554265 54.72037595 145.10905921 54.53417969 142.53955078 C54.4684375 141.73130859 54.40269531 140.92306641 54.33496094 140.09033203 C54.29757812 139.47544922 54.26019531 138.86056641 54.22167969 138.22705078 C53.56167969 138.22705078 52.90167969 138.22705078 52.22167969 138.22705078 C51.95613281 137.21384766 51.69058594 136.20064453 51.41699219 135.15673828 C51.0603228 133.80514901 50.70354626 132.45358801 50.34667969 131.10205078 C50.17265625 130.43689453 49.99863281 129.77173828 49.81933594 129.08642578 C48.99844577 125.98528513 48.12923871 122.95486347 47.09667969 119.91455078 C46.20731952 117.18294456 46.05397782 115.07798255 46.22167969 112.22705078 C45.56167969 112.22705078 44.90167969 112.22705078 44.22167969 112.22705078 C44.22167969 110.57705078 44.22167969 108.92705078 44.22167969 107.22705078 C43.56167969 107.22705078 42.90167969 107.22705078 42.22167969 107.22705078 C41.89167969 103.92705078 41.56167969 100.62705078 41.22167969 97.22705078 C40.56167969 97.22705078 39.90167969 97.22705078 39.22167969 97.22705078 C39.22167969 95.57705078 39.22167969 93.92705078 39.22167969 92.22705078 C38.56167969 92.22705078 37.90167969 92.22705078 37.22167969 92.22705078 C36.89167969 88.92705078 36.56167969 85.62705078 36.22167969 82.22705078 C35.56167969 82.22705078 34.90167969 82.22705078 34.22167969 82.22705078 C33.71361522 80.50023642 33.21557502 78.77047099 32.72167969 77.03955078 C32.44324219 76.07662109 32.16480469 75.11369141 31.87792969 74.12158203 C31.25490361 71.37359202 31.09865157 69.03106662 31.22167969 66.22705078 C30.56167969 66.22705078 29.90167969 66.22705078 29.22167969 66.22705078 C28.89167969 64.57705078 28.56167969 62.92705078 28.22167969 61.22705078 C27.89167969 90.59705078 27.56167969 119.96705078 27.22167969 150.22705078 C15.67167969 150.22705078 4.12167969 150.22705078 -7.77832031 150.22705078 C-9.77832031 148.22705078 -9.77832031 148.22705078 -10.02441597 145.70081902 C-10.02257238 144.6260084 -10.0207288 143.55119778 -10.01882935 142.44381714 C-10.02157867 141.21260132 -10.024328 139.9813855 -10.02716064 138.71286011 C-10.0200819 137.34112452 -10.01281228 135.96938992 -10.00537109 134.59765625 C-10.00480719 133.15895597 -10.00512313 131.72025512 -10.0062561 130.28155518 C-10.00683144 126.36852517 -9.99504792 122.45561703 -9.98110819 118.54261541 C-9.96863094 114.4559983 -9.96743271 110.36937859 -9.96505737 106.28274536 C-9.95883374 98.54085448 -9.94241102 90.79901988 -9.92235839 83.05715382 C-9.90002682 74.24470744 -9.88901287 65.43225841 -9.87896752 56.61979079 C-9.85804553 38.48884551 -9.82285244 20.35795267 -9.77832031 2.22705078 C-6.30433315 0.35959762 -3.97171948 -0.01726835 0 0 Z " fill="#000000" transform="translate(1147.7783203125,450.77294921875)"/>
<path d="M0 0 C6.93432992 3.98830325 11.18529662 8.89559913 13.546875 16.46484375 C14.44873032 16.45818192 15.35058563 16.45152008 16.2797699 16.44465637 C24.85395749 16.38409511 33.4280714 16.33864343 42.00242519 16.30940723 C46.4086934 16.29387047 50.81478224 16.27285673 55.22094727 16.23852539 C59.48741942 16.20549735 63.75372105 16.1879011 68.02031136 16.18021202 C69.63349142 16.17474525 71.24666408 16.16407509 72.85976982 16.14765358 C88.12520172 15.99868694 102.85527544 17.29478899 116.796875 24.02734375 C117.72798096 24.46570557 118.65908691 24.90406738 119.6184082 25.35571289 C127.48205862 29.1846179 134.06054592 33.59111241 140.546875 39.46484375 C141.495625 40.3053125 142.444375 41.14578125 143.421875 42.01171875 C155.00906344 52.89080123 162.37712191 65.5319421 167.546875 80.46484375 C168.08828125 81.91697266 168.08828125 81.91697266 168.640625 83.3984375 C175.22544952 105.678986 170.6435054 131.86110902 160.234375 152.02734375 C157.13847053 157.64608102 153.70012676 162.58928734 149.546875 167.46484375 C148.95390625 168.2021875 148.3609375 168.93953125 147.75 169.69921875 C142.45616797 176.04306706 136.33209213 180.79117205 129.546875 185.46484375 C128.721875 186.03332031 127.896875 186.60179687 127.046875 187.1875 C108.0570903 199.39968062 86.58238978 199.91176384 64.796875 199.7578125 C62.44319939 199.75220495 60.08952023 199.74794035 57.73583984 199.74494934 C51.59401479 199.73359175 45.45240858 199.70420444 39.31066895 199.6708374 C33.02224689 199.63993882 26.73378887 199.62640204 20.4453125 199.61132812 C8.14573812 199.57932469 -4.15367512 199.52824051 -16.453125 199.46484375 C-16.75549072 200.41101563 -17.05785645 201.3571875 -17.36938477 202.33203125 C-19.99085645 209.91002736 -26.2884881 214.87393251 -33.29296875 218.390625 C-41.05247063 221.02828015 -49.47758423 220.81583269 -56.953125 217.40234375 C-65.33932168 212.40956663 -70.75064529 205.94743848 -73.453125 196.46484375 C-74.68483978 186.77319327 -73.53763052 179.28473504 -67.9453125 171.31640625 C-62.21831654 164.151002 -55.45263274 160.40527665 -46.41796875 159.19140625 C-37.60672171 158.74999503 -29.5708808 162.35293768 -22.890625 167.96484375 C-20.19185836 170.54578482 -17.98700508 173.01361357 -16.453125 176.46484375 C-16.453125 177.45484375 -16.453125 178.44484375 -16.453125 179.46484375 C-2.26621472 179.40418768 11.92051422 179.32640825 26.10722256 179.22912884 C32.69508574 179.18445108 39.28288744 179.14518895 45.87084961 179.1184082 C52.23168069 179.09234977 58.59227488 179.05192867 64.95295906 179.00165749 C67.376527 178.98500608 69.8001359 178.97348109 72.22375298 178.96722984 C75.62524981 178.9575703 79.02614292 178.92948743 82.42749023 178.8972168 C83.92182587 178.89936943 83.92182587 178.89936943 85.4463501 178.90156555 C101.63558816 178.68514932 117.73138191 169.63058206 128.96484375 158.27734375 C144.06772007 141.82640434 149.64713988 123.2863619 149.01953125 101.2734375 C148.00971175 84.19089201 139.14663848 66.94790578 126.546875 55.46484375 C122.33872148 52.24346568 118.00887514 49.32052384 113.546875 46.46484375 C112.58974609 45.81515625 112.58974609 45.81515625 111.61328125 45.15234375 C100.37571189 37.97823463 87.7678461 37.81518878 74.953125 37.79296875 C73.19005926 37.78008515 71.42699764 37.76662647 69.66394043 37.75262451 C65.99623683 37.7288517 62.32890787 37.72124646 58.66113281 37.72363281 C53.96513539 37.72404221 49.2715181 37.66906322 44.57608795 37.60054398 C40.9471531 37.55609387 37.31880021 37.54795427 33.68962097 37.55007172 C31.95761273 37.54536085 30.22558833 37.5277189 28.49385071 37.49674225 C19.40835135 36.93346031 19.40835135 36.93346031 11.42279053 40.23039246 C10.13226046 42.28734048 9.33357039 44.17830496 8.546875 46.46484375 C2.92854809 52.91678421 -3.15219001 55.93804276 -11.59765625 56.77734375 C-21.4412204 57.1440423 -28.60811494 54.85444602 -35.8828125 48.171875 C-42.50265984 40.97567279 -43.78941487 34.17063885 -43.66015625 24.59375 C-43.07206219 15.70576242 -40.12005739 9.40567459 -33.453125 3.46484375 C-23.42379899 -3.93293433 -11.59945147 -4.82166548 0 0 Z " fill="#FAFAFA" transform="translate(346.453125,472.53515625)"/>
<path d="M0 0 C2.29606256 1.20462437 4.16715957 2.50244427 6.15625 4.1640625 C6.87296875 4.74542969 7.5896875 5.32679688 8.328125 5.92578125 C14.32391744 11.3198062 17.50075785 17.06351422 18.53125 25.08203125 C18.90858709 34.19708026 16.73987937 42.29138682 11.09375 49.5390625 C5.73896485 55.19585289 -3.02162902 59.20336342 -10.84375 59.4765625 C-19.58513306 59.33442619 -26.91953407 55.96269623 -33.18359375 49.96875 C-38.84375 43.81582721 -38.84375 43.81582721 -38.84375 39.1640625 C-52.83122265 39.20137509 -66.8184376 39.26170682 -80.80569744 39.34796524 C-87.30154575 39.3873644 -93.79726002 39.41959009 -100.29321289 39.43505859 C-106.56982209 39.45027476 -112.84606262 39.48480878 -119.1225071 39.53237152 C-121.50927324 39.54713416 -123.89609203 39.55510055 -126.28290367 39.55594635 C-143.96697678 39.42903115 -143.96697678 39.42903115 -160.84375 44.1640625 C-162.06191406 44.67066406 -163.28007812 45.17726563 -164.53515625 45.69921875 C-183.53767139 55.80803973 -196.4539543 72.23676849 -202.78125 92.7265625 C-205.80508432 106.69289725 -205.0212048 121.87108167 -199.84375 135.1640625 C-199.39322266 136.38222656 -199.39322266 136.38222656 -198.93359375 137.625 C-190.92917509 157.37616292 -176.25421613 169.85402514 -157.24609375 178.2890625 C-152.36450531 180.06707195 -147.73705916 180.31654973 -142.5625 180.40454102 C-141.49080566 180.42403557 -141.49080566 180.42403557 -140.39746094 180.44392395 C-132.97394248 180.57002655 -125.54934677 180.62723899 -118.125 180.67895508 C-114.60353434 180.70577365 -111.08340888 180.75461817 -107.5625 180.82250977 C-103.30312448 180.90441094 -99.04503219 180.94712672 -94.78491211 180.96201897 C-93.16446744 180.97426594 -91.54406525 181.00029811 -89.92407227 181.04046822 C-81.31000872 181.62415001 -81.31000872 181.62415001 -73.78364563 178.40519714 C-72.49926362 176.35390844 -71.66832164 174.43006798 -70.84375 172.1640625 C-65.68545429 166.34682282 -60.04849436 162.80761667 -52.31640625 161.8515625 C-43.37181149 161.44090679 -34.60604266 163.60377165 -27.46875 169.1640625 C-21.35963865 175.15814874 -17.55031105 182.70163132 -17.21875 191.2890625 C-17.84993135 201.81332552 -22.32193738 208.9801438 -29.84375 216.1640625 C-37.28842428 222.32023546 -46.89999264 221.80857938 -56.07421875 220.95703125 C-61.97124257 219.88591515 -66.80818388 216.50392625 -70.84375 212.1640625 C-71.75366324 210.63346736 -72.63005847 209.08265808 -73.47973633 207.51782227 C-73.9241658 206.7036232 -74.36859528 205.88942413 -74.82649231 205.05055237 C-75.16218735 204.42801071 -75.49788239 203.80546906 -75.84375 203.1640625 C-77.03620331 203.15859406 -77.03620331 203.15859406 -78.25274658 203.15301514 C-85.8403068 203.11473853 -93.42739724 203.05745112 -101.01465225 202.98015976 C-104.91293985 202.94108214 -108.81101497 202.90870373 -112.70947266 202.89306641 C-146.39236648 202.74802927 -175.35286077 199.55370127 -200.46386719 174.58740234 C-219.43591715 155.01786036 -226.42681592 132.22055149 -226.26098633 105.45605469 C-225.66574868 80.67764467 -214.69111754 60.03475556 -197.33935547 42.58496094 C-186.8730147 32.64142466 -174.60058294 26.23426499 -160.84375 22.1640625 C-160.06725601 21.91187454 -159.29076202 21.65968658 -158.49073792 21.39985657 C-146.77330207 18.11392246 -134.79430405 18.7888394 -122.73046875 18.87109375 C-120.30524459 18.87669779 -117.880017 18.88096406 -115.45478821 18.88395691 C-109.11071182 18.89534205 -102.76684563 18.92475417 -96.42285156 18.95806885 C-89.93362266 18.98890693 -83.44435938 19.00249147 -76.95507812 19.01757812 C-64.25121307 19.0496304 -51.54749278 19.10016225 -38.84375 19.1640625 C-38.70582031 18.38087646 -38.56789063 17.59769043 -38.42578125 16.79077148 C-37.03044896 10.49363218 -31.15666339 6.17110526 -26.03125 2.7265625 C-18.47557998 -2.04612407 -8.63783902 -2.53914499 0 0 Z " fill="#FAFAFA" transform="translate(472.84375,388.8359375)"/>
<path d="M0 0 C1.8871875 -0.00386719 1.8871875 -0.00386719 3.8125 -0.0078125 C7 0.125 7 0.125 9 1.125 C11.0374763 1.35358114 13.08040303 1.53524278 15.125 1.6875 C16.76855469 1.81318359 16.76855469 1.81318359 18.4453125 1.94140625 C19.70988281 2.03228516 19.70988281 2.03228516 21 2.125 C21 2.785 21 3.445 21 4.125 C21.99 4.063125 22.98 4.00125 24 3.9375 C28.46888211 3.91008355 31.91304608 5.4041773 36 7.125 C36 7.785 36 8.445 36 9.125 C37.093125 9.24875 38.18625 9.3725 39.3125 9.5 C43 10.125 43 10.125 46 12.125 C46 12.785 46 13.445 46 14.125 C46.70125 14.125 47.4025 14.125 48.125 14.125 C52.63355795 15.69319407 54.86805746 18.94007575 57 23.125 C57.47231654 26.00272244 57.31451149 28.18955946 57 31.125 C55.35 31.785 53.7 32.445 52 33.125 C52 33.785 52 34.445 52 35.125 C50.34467377 36.14366229 48.67739862 37.14310813 47 38.125 C46.505 39.115 46.505 39.115 46 40.125 C43.4375 40.75 43.4375 40.75 41 41.125 C41 41.785 41 42.445 41 43.125 C40.34 43.125 39.68 43.125 39 43.125 C39 43.785 39 44.445 39 45.125 C37.35 45.455 35.7 45.785 34 46.125 C34 46.785 34 47.445 34 48.125 C31.37428995 48.51113383 29.6156121 48.50993778 27.33203125 47.08203125 C25.6875 45.75 25.6875 45.75 23 43.125 C23 42.465 23 41.805 23 41.125 C22.319375 40.856875 21.63875 40.58875 20.9375 40.3125 C18 39.125 18 39.125 14.9140625 37.57421875 C10.45605529 35.66548269 6.22675232 35.6822808 1.4375 35.75 C0.2009668 35.73259766 0.2009668 35.73259766 -1.06054688 35.71484375 C-6.09823907 35.73900534 -9.65261935 36.30916103 -14 39.125 C-14.495 40.115 -14.495 40.115 -15 41.125 C-15.66 41.125 -16.32 41.125 -17 41.125 C-17 42.445 -17 43.765 -17 45.125 C-16.34 45.125 -15.68 45.125 -15 45.125 C-15 46.115 -15 47.105 -15 48.125 C-14.01 48.125 -13.02 48.125 -12 48.125 C-12 48.785 -12 49.445 -12 50.125 C-11.443125 50.16238281 -10.88625 50.19976562 -10.3125 50.23828125 C-5.52989929 50.65029584 -1.61740256 51.53324874 2.8046875 53.359375 C7.06562457 54.84539576 11.55299505 55.43015548 16 56.125 C16 56.785 16 57.445 16 58.125 C18.31 58.125 20.62 58.125 23 58.125 C23 58.785 23 59.445 23 60.125 C28.445 60.62 28.445 60.62 34 61.125 C34 61.785 34 62.445 34 63.125 C34.99 63.186875 35.98 63.24875 37 63.3125 C41.60896886 63.95342001 45.44702822 66.1626521 49 69.125 C49 69.785 49 70.445 49 71.125 C49.639375 71.393125 50.27875 71.66125 50.9375 71.9375 C53 73.125 53 73.125 54 76.125 C54.66 76.125 55.32 76.125 56 76.125 C56.96462975 77.82978591 57.92141054 79.53901412 58.875 81.25 C59.40867187 82.20132813 59.94234375 83.15265625 60.4921875 84.1328125 C64.15182337 91.3951987 64.24769877 97.48682664 64.125 105.5 C64.11597656 106.61761719 64.10695313 107.73523438 64.09765625 108.88671875 C64.07418346 111.63303462 64.04134728 114.37890472 64 117.125 C63.34 117.125 62.68 117.125 62 117.125 C61.814375 118.98125 61.814375 118.98125 61.625 120.875 C61.24253695 124.0012197 60.69450477 126.41379237 59 129.125 C58.34 129.125 57.68 129.125 57 129.125 C56.67 130.445 56.34 131.765 56 133.125 C55.34 133.125 54.68 133.125 54 133.125 C54 133.785 54 134.445 54 135.125 C53.34 135.125 52.68 135.125 52 135.125 C51.67 136.115 51.34 137.105 51 138.125 C50.34 138.125 49.68 138.125 49 138.125 C49 138.785 49 139.445 49 140.125 C48.34 140.125 47.68 140.125 47 140.125 C46.67 141.115 46.34 142.105 46 143.125 C43.8203125 144.51171875 43.8203125 144.51171875 41.125 145.8125 C40.24070312 146.24949219 39.35640625 146.68648437 38.4453125 147.13671875 C36 148.125 36 148.125 33 148.125 C33 148.785 33 149.445 33 150.125 C25.74630111 152.16992575 18.83403937 153.50369046 11.30078125 153.9140625 C9.03756896 153.87423228 9.03756896 153.87423228 8 155.125 C5.15664952 155.22486975 2.34302837 155.26377881 -0.5 155.25 C-1.29792969 155.25386719 -2.09585938 155.25773438 -2.91796875 155.26171875 C-8.87339233 155.25160767 -8.87339233 155.25160767 -10 154.125 C-11.90746951 153.92957996 -13.81572629 153.73997681 -15.7265625 153.58081055 C-29.28241658 152.41757918 -41.02584291 148.74600451 -53 142.125 C-53 141.465 -53 140.805 -53 140.125 C-53.99 140.125 -54.98 140.125 -56 140.125 C-56 139.465 -56 138.805 -56 138.125 C-56.99 137.795 -57.98 137.465 -59 137.125 C-59 136.465 -59 135.805 -59 135.125 C-59.66 135.125 -60.32 135.125 -61 135.125 C-61 134.465 -61 133.805 -61 133.125 C-61.99 132.795 -62.98 132.465 -64 132.125 C-65.82452127 129.66160851 -67.08258574 127.04754124 -68 124.125 C-67.25 121.125 -67.25 121.125 -66 119.125 C-65.34 119.125 -64.68 119.125 -64 119.125 C-64 118.465 -64 117.805 -64 117.125 C-63.01 117.125 -62.02 117.125 -61 117.125 C-61 116.465 -61 115.805 -61 115.125 C-58.525 114.63 -58.525 114.63 -56 114.125 C-56 113.465 -56 112.805 -56 112.125 C-51.61538462 109.125 -51.61538462 109.125 -49 109.125 C-49 108.465 -49 107.805 -49 107.125 C-45.77044665 104.81817618 -42.9535518 103.53049249 -39 103.125 C-36.6875 103.5625 -36.6875 103.5625 -35 104.125 C-35 104.785 -35 105.445 -35 106.125 C-34.360625 106.393125 -33.72125 106.66125 -33.0625 106.9375 C-31 108.125 -31 108.125 -30 111.125 C-29.01 111.455 -28.02 111.785 -27 112.125 C-27 112.785 -27 113.445 -27 114.125 C-26.236875 114.41375 -25.47375 114.7025 -24.6875 115 C-22 116.125 -22 116.125 -19 118.125 C-13.88348732 119.44435892 -8.81168176 119.30887237 -3.5625 119.3125 C-2.1693457 119.33086914 -2.1693457 119.33086914 -0.74804688 119.34960938 C7.62755087 119.44638603 7.62755087 119.44638603 14.75 115.5 C15.1625 115.04625 15.575 114.5925 16 114.125 C16.66 114.125 17.32 114.125 18 114.125 C18 111.815 18 109.505 18 107.125 C15.66785852 105.91871992 13.50357861 104.9595262 11 104.125 C11 103.465 11 102.805 11 102.125 C9.82244141 102.05152344 9.82244141 102.05152344 8.62109375 101.9765625 C2.80977697 101.5629964 -2.478943 101.00717852 -8 99.125 C-8 98.465 -8 97.805 -8 97.125 C-9.28583984 97.05152344 -9.28583984 97.05152344 -10.59765625 96.9765625 C-16.66756456 96.57965756 -22.24397411 96.13291601 -28 94.125 C-28 93.465 -28 92.805 -28 92.125 C-30.64 91.795 -33.28 91.465 -36 91.125 C-36 90.465 -36 89.805 -36 89.125 C-36.86625 88.939375 -36.86625 88.939375 -37.75 88.75 C-40.02335767 88.11851176 -41.9253529 87.23641809 -44 86.125 C-44 85.465 -44 84.805 -44 84.125 C-44.639375 83.856875 -45.27875 83.58875 -45.9375 83.3125 C-48 82.125 -48 82.125 -49 79.125 C-51.01508358 78.39176204 -51.01508358 78.39176204 -53 78.125 C-53.33 76.805 -53.66 75.485 -54 74.125 C-54.66 74.125 -55.32 74.125 -56 74.125 C-56 73.135 -56 72.145 -56 71.125 C-56.66 71.125 -57.32 71.125 -58 71.125 C-59.02635833 68.46579886 -60.02183969 65.80181918 -61 63.125 C-61.5878125 61.578125 -61.5878125 61.578125 -62.1875 60 C-63.43135201 54.06778271 -63.15075661 48.16363982 -63 42.125 C-62.34 42.125 -61.68 42.125 -61 42.125 C-61 39.815 -61 37.505 -61 35.125 C-60.34 35.125 -59.68 35.125 -59 35.125 C-58.87625 34.031875 -58.7525 32.93875 -58.625 31.8125 C-58 28.125 -58 28.125 -56 25.125 C-55.34 25.125 -54.68 25.125 -54 25.125 C-53.731875 24.320625 -53.46375 23.51625 -53.1875 22.6875 C-52.795625 21.841875 -52.40375 20.99625 -52 20.125 C-51.01 19.795 -50.02 19.465 -49 19.125 C-48.690625 18.465 -48.38125 17.805 -48.0625 17.125 C-47 15.125 -47 15.125 -44.875 14.375 C-43.946875 14.25125 -43.946875 14.25125 -43 14.125 C-43 13.465 -43 12.805 -43 12.125 C-42.34 12.125 -41.68 12.125 -41 12.125 C-41 11.465 -41 10.805 -41 10.125 C-39.02 9.795 -37.04 9.465 -35 9.125 C-35 8.465 -35 7.805 -35 7.125 C-29.89665983 5.219753 -25.53657294 3.69910977 -20 4.125 C-20 3.465 -20 2.805 -20 2.125 C-18.84371094 2.03412109 -18.84371094 2.03412109 -17.6640625 1.94140625 C-16.15972656 1.81572266 -16.15972656 1.81572266 -14.625 1.6875 C-13.62726562 1.60628906 -12.62953125 1.52507812 -11.6015625 1.44140625 C-7.49695855 0.94219766 -4.33895857 -0.00889131 0 0 Z " fill="#000000" transform="translate(783,448.875)"/>
<path d="M0 0 C5.49923749 -0.07411371 10.99818479 -0.12858464 16.49780273 -0.16479492 C18.36894799 -0.17988873 20.24005783 -0.20036589 22.11108398 -0.22631836 C24.79940526 -0.26267593 27.48725913 -0.27972015 30.17578125 -0.29296875 C31.43217155 -0.31619453 31.43217155 -0.31619453 32.71394348 -0.33988953 C38.56444218 -0.34158785 38.56444218 -0.34158785 40.67082214 1.31034851 C43.72717964 5.19559153 44.29156959 10.18910181 44 15 C44.66 15 45.32 15 46 15 C46.495 19.455 46.495 19.455 47 24 C47.66 24 48.32 24 49 24 C49.508783 25.55966218 50.00663469 27.12289241 50.5 28.6875 C50.7784375 29.55761719 51.056875 30.42773438 51.34375 31.32421875 C51.99850805 33.99391677 52.11831495 36.26396684 52 39 C52.66 39 53.32 39 54 39 C54.495 41.475 54.495 41.475 55 44 C55.66 41.36 56.32 38.72 57 36 C57.66 36 58.32 36 59 36 C59 34.35 59 32.7 59 31 C59.66 31 60.32 31 61 31 C61.33 27.37 61.66 23.74 62 20 C62.66 20 63.32 20 64 20 C64 18.35 64 16.7 64 15 C64.66 15 65.32 15 66 15 C66.02578125 14.25234375 66.0515625 13.5046875 66.078125 12.734375 C66.16320313 11.25710938 66.16320313 11.25710938 66.25 9.75 C66.29640625 8.77546875 66.3428125 7.8009375 66.390625 6.796875 C67.16032212 3.2641626 68.1639303 2.21541538 71 0 C74.06860352 -0.50170898 74.06860352 -0.50170898 77.62890625 -0.49609375 C79.55186523 -0.49706055 79.55186523 -0.49706055 81.51367188 -0.49804688 C82.5103186 -0.48245728 82.5103186 -0.48245728 83.52709961 -0.46655273 C85.55990925 -0.43753698 87.59011817 -0.44596066 89.62304688 -0.45898438 C99.45068915 -0.39468677 99.45068915 -0.39468677 101.83178711 1.31616211 C104.63776488 5.36064041 105.29219085 10.17885095 105 15 C105.66 15 106.32 15 107 15 C107.495 20.445 107.495 20.445 108 26 C108.66 26 109.32 26 110 26 C110.50744423 27.89385437 111.00564574 29.79018666 111.5 31.6875 C111.7784375 32.74324219 112.056875 33.79898438 112.34375 34.88671875 C112.9391715 37.71142672 113.12786492 40.12836708 113 43 C113.66 43 114.32 43 115 43 C115.99 39.7 116.98 36.4 118 33 C118.66 33 119.32 33 120 33 C120.33 29.7 120.66 26.4 121 23 C121.66 23 122.32 23 123 23 C123 21.35 123 19.7 123 18 C123.66 18 124.32 18 125 18 C125.07347656 17.00419922 125.07347656 17.00419922 125.1484375 15.98828125 C125.89103691 7.21792619 125.89103691 7.21792619 128 3 C128.66 3 129.32 3 130 3 C130.33 2.01 130.66 1.02 131 0 C140.24 0 149.48 0 159 0 C159 0.99 159 1.98 159 3 C159.66 3 160.32 3 161 3 C160.09255778 6.78260126 159.01058149 10.51152256 157.9375 14.25 C157.57527344 15.51328125 157.21304687 16.7765625 156.83984375 18.078125 C156.56269531 19.04234375 156.28554687 20.0065625 156 21 C155.34 21 154.68 21 154 21 C153.9175 22.11375 153.835 23.2275 153.75 24.375 C153.21534411 28.80163628 151.72285816 32.54246617 149.9375 36.60546875 C148.97605522 39.06115896 148.44248201 41.4050274 148 44 C147.34 44 146.68 44 146 44 C146 45.65 146 47.3 146 49 C145.34 49 144.68 49 144 49 C143.9175 50.299375 143.835 51.59875 143.75 52.9375 C143.26795819 57.43891983 141.87914923 60.93118039 139.921875 64.98046875 C138.87036329 67.28399229 138.32375632 69.49088852 138 72 C137.34 72 136.68 72 136 72 C135.814375 73.7634375 135.814375 73.7634375 135.625 75.5625 C135.13564065 79.54120426 134.1944795 83.17766559 133 87 C132.34 87 131.68 87 131 87 C130.938125 88.093125 130.87625 89.18625 130.8125 90.3125 C130.16417624 95.71197254 127.92721643 103.07278357 124 107 C119.90355931 107.26578839 115.80355036 107.27122408 111.69921875 107.29516602 C109.6399471 107.31237509 107.58228297 107.35624432 105.5234375 107.40039062 C104.22921875 107.40876953 102.935 107.41714844 101.6015625 107.42578125 C99.81226318 107.44765503 99.81226318 107.44765503 97.98681641 107.4699707 C95 107 95 107 93.09912109 105.14526367 C91.79026431 102.59063805 91.76391221 100.83305349 92 98 C91.34 98 90.68 98 90 98 C89.67 94.7 89.34 91.4 89 88 C88.34 88 87.68 88 87 88 C86.49193553 86.27318563 85.99389533 84.54342021 85.5 82.8125 C85.2215625 81.84957031 84.943125 80.88664063 84.65625 79.89453125 C84.03322392 77.14654124 83.87697188 74.80401584 84 72 C83.34 72 82.68 72 82 72 C81.34 70.02 80.68 68.04 80 66 C79.01 66.495 79.01 66.495 78 67 C77.34444881 69.52733235 77.34444881 69.52733235 77 72 C76.34 72 75.68 72 75 72 C74.92652344 72.87011719 74.92652344 72.87011719 74.8515625 73.7578125 C74.40350595 78.43923092 73.701979 82.57485459 72 87 C71.34 87 70.68 87 70 87 C69.9175 88.27875 69.835 89.5575 69.75 90.875 C69.19610203 96.00670181 67.78749577 103.21250423 64 107 C59.8001397 107.36224714 55.59490759 107.44227022 51.38183594 107.51489258 C49.96731669 107.54648113 48.55306029 107.59418641 47.13964844 107.65844727 C35.46565862 108.18199974 35.46565862 108.18199974 31.96020508 105.35498047 C29.67262167 101.86683591 28.38375865 98.18685121 28.1875 94 C28.13980469 93.236875 28.09210937 92.47375 28.04296875 91.6875 C28.02169922 90.8521875 28.02169922 90.8521875 28 90 C27.34 90 26.68 90 26 90 C25.491217 88.44033782 24.99336531 86.87710759 24.5 85.3125 C24.2215625 84.44238281 23.943125 83.57226562 23.65625 82.67578125 C23.00149195 80.00608323 22.88168505 77.73603316 23 75 C22.34 75 21.68 75 21 75 C20.505 70.05 20.505 70.05 20 65 C19.34 65 18.68 65 18 65 C14.55580866 55.58997722 14.55580866 55.58997722 15 51 C14.34 51 13.68 51 13 51 C9.55580866 41.58997722 9.55580866 41.58997722 10 37 C9.34 37 8.68 37 8 37 C7.75765625 36.10539063 7.5153125 35.21078125 7.265625 34.2890625 C5.44960679 27.73742757 3.53447096 21.39765286 0.734375 15.18359375 C-0.10637778 12.68369586 -0.12893205 10.62008347 0 8 C-0.66 8 -1.32 8 -2 8 C-2 6.35 -2 4.7 -2 3 C-1.34 3 -0.68 3 0 3 C0 2.01 0 1.02 0 0 Z " fill="#000000" transform="translate(967,494)"/>
<path d="M0 0 C5.10863896 -0.0246501 10.21724359 -0.04283607 15.32592773 -0.05493164 C17.06519168 -0.05997204 18.80445136 -0.0668043 20.54370117 -0.07543945 C23.03825937 -0.08751792 25.53276173 -0.09323108 28.02734375 -0.09765625 C28.80963852 -0.10281754 29.59193329 -0.10797882 30.39793396 -0.11329651 C32.26567114 -0.11349226 34.13329204 -0.06199694 36 0 C36.495 0.495 36.495 0.495 37 1 C39.73631801 1.53821792 42.4842058 1.96478036 45.23828125 2.40234375 C47.8073094 2.95830034 49.72711129 3.70969025 52 5 C52 5.66 52 6.32 52 7 C53.65 7.33 55.3 7.66 57 8 C57 8.66 57 9.32 57 10 C57.66 10 58.32 10 59 10 C59.9765625 11.72526042 60.953125 13.45052083 61.9296875 15.17578125 C62.89428581 16.81982289 63.94267059 18.41400588 65 20 C66.78375565 25.10464615 67.28036801 29.77825398 67.22705078 35.13842773 C67.22734283 35.91973557 67.22763489 36.7010434 67.22793579 37.50602722 C67.22655248 40.06533262 67.21103885 42.62433978 67.1953125 45.18359375 C67.19157881 46.96720724 67.18873352 48.7508228 67.18673706 50.53443909 C67.17912863 55.21155536 67.15950429 59.88854592 67.1373291 64.56561279 C67.11681037 69.34515686 67.10772249 74.12472139 67.09765625 78.90429688 C67.07625562 88.26958625 67.04215359 97.63478264 67 107 C66.34 107 65.68 107 65 107 C65 107.66 65 108.32 65 109 C53.12 109 41.24 109 29 109 C29 108.34 29 107.68 29 107 C28.34 107 27.68 107 27 107 C26.87625 106.030625 26.7525 105.06125 26.625 104.0625 C26.41875 103.051875 26.2125 102.04125 26 101 C25.01 100.505 25.01 100.505 24 100 C24 100.66 24 101.32 24 102 C21.09451118 104.04169485 19.59857954 105 16 105 C16 105.66 16 106.32 16 107 C10.85744882 109.46413911 6.66172072 110.41430475 1 111 C0.67 111.33 0.34 111.66 0 112 C-2.01964199 112.07244053 -4.04167124 112.08377188 -6.0625 112.0625 C-7.16722656 112.05347656 -8.27195312 112.04445313 -9.41015625 112.03515625 C-10.26480469 112.02355469 -11.11945313 112.01195312 -12 112 C-12 111.34 -12 110.68 -12 110 C-13.175625 110.061875 -14.35125 110.12375 -15.5625 110.1875 C-20.80124376 110.1875 -24.80099611 108.77339023 -28.9375 105.4375 C-30 104 -30 104 -30 102 C-30.66 102 -31.32 102 -32 102 C-33.625 100.75 -33.625 100.75 -35 99 C-35 97.68 -35 96.36 -35 95 C-35.66 95 -36.32 95 -37 95 C-37.98327315 92.05018055 -38.12887338 90.11020492 -38.1328125 87.03515625 C-38.13410156 86.07029297 -38.13539062 85.10542969 -38.13671875 84.11132812 C-38.13285156 83.10521484 -38.12898438 82.09910156 -38.125 81.0625 C-38.12886719 80.06025391 -38.13273437 79.05800781 -38.13671875 78.02539062 C-38.13542969 77.05923828 -38.13414063 76.09308594 -38.1328125 75.09765625 C-38.13168457 74.21601807 -38.13055664 73.33437988 -38.12939453 72.42602539 C-38.00775796 70.1454544 -37.63923813 68.1859151 -37 66 C-36.34 66 -35.68 66 -35 66 C-35 65.01 -35 64.02 -35 63 C-34.34 63 -33.68 63 -33 63 C-32.90589844 62.40703125 -32.81179688 61.8140625 -32.71484375 61.203125 C-31.84054781 58.50857359 -30.73279682 57.53677244 -28.5625 55.75 C-27.94503906 55.22921875 -27.32757812 54.7084375 -26.69140625 54.171875 C-25 53 -25 53 -23 53 C-23 52.34 -23 51.68 -23 51 C-22.01 51 -21.02 51 -20 51 C-20 50.34 -20 49.68 -20 49 C-17.03 48.505 -17.03 48.505 -14 48 C-14 47.34 -14 46.68 -14 46 C-7.97090705 44.03560291 -2.29912073 42.68717681 4 42 C4.33 41.67 4.66 41.34 5 41 C6.55948542 40.84313751 8.12542668 40.74923361 9.69140625 40.68359375 C10.63564453 40.64169922 11.57988281 40.59980469 12.55273438 40.55664062 C13.54595703 40.51732422 14.53917969 40.47800781 15.5625 40.4375 C16.55958984 40.39431641 17.55667969 40.35113281 18.58398438 40.30664062 C21.0558415 40.20019702 23.5278031 40.09818072 26 40 C25.88785156 38.72898437 25.77570313 37.45796875 25.66015625 36.1484375 C25.59707275 35.43349121 25.53398926 34.71854492 25.46899414 33.98193359 C24.72860119 30.85308924 22.57453361 29.71635574 20 28 C20 27.34 20 26.68 20 26 C17.03 26 14.06 26 11 26 C11 26.66 11 27.32 11 28 C6.61538462 31 6.61538462 31 4 31 C3.690625 31.78375 3.38125 32.5675 3.0625 33.375 C2 36 2 36 1 38 C-2.3 38 -5.6 38 -9 38 C-9 37.34 -9 36.68 -9 36 C-9.56847656 36.01160156 -10.13695312 36.02320313 -10.72265625 36.03515625 C-15.60234647 36.09218101 -20.19878078 35.9002286 -25 35 C-25.33 34.67 -25.66 34.34 -26 34 C-28.32817964 33.63239269 -30.6618385 33.29758419 -33 33 C-33 32.34 -33 31.68 -33 31 C-33.66 31 -34.32 31 -35 31 C-35 29.02 -35 27.04 -35 25 C-34.34 25 -33.68 25 -33 25 C-32.67 22.69 -32.34 20.38 -32 18 C-31.34 18 -30.68 18 -30 18 C-30 17.01 -30 16.02 -30 15 C-29.34 15 -28.68 15 -28 15 C-27.67 14.01 -27.34 13.02 -27 12 C-26.34 12 -25.68 12 -25 12 C-25 11.34 -25 10.68 -25 10 C-24.34 10 -23.68 10 -23 10 C-23 9.34 -23 8.68 -23 8 C-21.02 7.67 -19.04 7.34 -17 7 C-17 6.34 -17 5.68 -17 5 C-11.06108578 2.4084738 -6.45892714 1.59631705 0 2 C0 1.34 0 0.68 0 0 Z M16.1875 62.9375 C15.39730469 63.13214844 14.60710937 63.32679688 13.79296875 63.52734375 C13.20128906 63.68332031 12.60960937 63.83929687 12 64 C12 64.66 12 65.32 12 66 C10.35 66.33 8.7 66.66 7 67 C7 67.66 7 68.32 7 69 C6.01 69.33 5.02 69.66 4 70 C2.47508002 73.04983996 2.76437452 75.6423369 3 79 C4.04374022 81.04451019 4.04374022 81.04451019 6 82 C8.62570704 82.25069913 8.62570704 82.25069913 11 82 C11 82.66 11 83.32 11 84 C14.3 83.01 17.6 82.02 21 81 C21 80.34 21 79.68 21 79 C21.66 79 22.32 79 23 79 C24.75118837 77.96061088 24.75118837 77.96061088 26 76 C26.3636162 72.79861932 26.3636162 72.79861932 26.1875 69.3125 C26.16042969 68.13300781 26.13335938 66.95351563 26.10546875 65.73828125 C26.05326172 64.38283203 26.05326172 64.38283203 26 63 C22.35618406 62.0744837 19.82568551 62.0143783 16.1875 62.9375 Z " fill="#000000" transform="translate(1360,492)"/>
<path d="M0 0 C1.79824219 0.00966797 1.79824219 0.00966797 3.6328125 0.01953125 C5.4890625 0.04466797 5.4890625 0.04466797 7.3828125 0.0703125 C8.64351562 0.07933594 9.90421875 0.08835937 11.203125 0.09765625 C14.3048829 0.12115442 17.40624902 0.15400916 20.5078125 0.1953125 C20.5078125 0.8553125 20.5078125 1.5153125 20.5078125 2.1953125 C25.4578125 2.6903125 25.4578125 2.6903125 30.5078125 3.1953125 C30.5078125 3.8553125 30.5078125 4.5153125 30.5078125 5.1953125 C31.4978125 5.1953125 32.4878125 5.1953125 33.5078125 5.1953125 C33.5078125 5.8553125 33.5078125 6.5153125 33.5078125 7.1953125 C34.6525 7.3809375 34.6525 7.3809375 35.8203125 7.5703125 C38.5078125 8.1953125 38.5078125 8.1953125 41.5078125 10.1953125 C41.5078125 10.8553125 41.5078125 11.5153125 41.5078125 12.1953125 C42.8278125 12.5253125 44.1478125 12.8553125 45.5078125 13.1953125 C46.0028125 15.1753125 46.0028125 15.1753125 46.5078125 17.1953125 C48.4878125 17.6903125 48.4878125 17.6903125 50.5078125 18.1953125 C51.0028125 20.6703125 51.0028125 20.6703125 51.5078125 23.1953125 C52.1678125 23.1953125 52.8278125 23.1953125 53.5078125 23.1953125 C56.89999463 27.61989788 58.04566081 32.91319383 59.5078125 38.1953125 C59.86230469 39.27425781 60.21679688 40.35320313 60.58203125 41.46484375 C61.64739022 45.75774592 61.80358343 49.60998899 61.7578125 54.0078125 C61.76941406 55.1515332 61.76941406 55.1515332 61.78125 56.31835938 C61.76136175 61.94176325 61.76136175 61.94176325 59.5078125 64.1953125 C56.7996521 64.43582153 56.7996521 64.43582153 53.31396484 64.42236328 C51.36216812 64.42213669 51.36216812 64.42213669 49.37094116 64.42190552 C47.94520923 64.41169143 46.51947885 64.40125942 45.09375 64.390625 C43.63929437 64.38689545 42.18483623 64.3840482 40.7303772 64.38204956 C36.89983194 64.3744085 33.06943804 64.35475607 29.23895264 64.3326416 C25.33119759 64.31219328 21.42341811 64.30305002 17.515625 64.29296875 C9.84628512 64.27151052 2.17707001 64.23736901 -5.4921875 64.1953125 C-5.18209866 65.79994699 -4.86902463 67.40400481 -4.5546875 69.0078125 C-4.38066406 69.90113281 -4.20664062 70.79445313 -4.02734375 71.71484375 C-3.51477597 74.30928421 -3.51477597 74.30928421 -2.4921875 77.1953125 C0.01228766 78.41401179 0.01228766 78.41401179 2.5078125 79.1953125 C2.5078125 79.8553125 2.5078125 80.5153125 2.5078125 81.1953125 C8.4478125 81.1953125 14.3878125 81.1953125 20.5078125 81.1953125 C20.5078125 80.5353125 20.5078125 79.8753125 20.5078125 79.1953125 C26.2578125 76.1953125 26.2578125 76.1953125 28.5078125 76.1953125 C28.5078125 75.5353125 28.5078125 74.8753125 28.5078125 74.1953125 C29.1678125 74.1953125 29.8278125 74.1953125 30.5078125 74.1953125 C30.5078125 73.5353125 30.5078125 72.8753125 30.5078125 72.1953125 C34.55466631 70.17188559 39.61187054 70.65807689 43.87890625 71.8671875 C45.77826623 72.5849492 47.64681993 73.38324302 49.5078125 74.1953125 C49.5078125 74.8553125 49.5078125 75.5153125 49.5078125 76.1953125 C51.1475 76.3809375 51.1475 76.3809375 52.8203125 76.5703125 C56.5078125 77.1953125 56.5078125 77.1953125 59.5078125 79.1953125 C60.3203125 81.0703125 60.3203125 81.0703125 60.5078125 83.1953125 C59.5703125 85.4453125 59.5703125 85.4453125 58.5078125 87.1953125 C57.8478125 87.1953125 57.1878125 87.1953125 56.5078125 87.1953125 C56.2603125 87.7315625 56.0128125 88.2678125 55.7578125 88.8203125 C54.20128713 91.7777107 52.47345577 94.49255301 50.5078125 97.1953125 C49.8478125 97.1953125 49.1878125 97.1953125 48.5078125 97.1953125 C48.5078125 97.8553125 48.5078125 98.5153125 48.5078125 99.1953125 C44.12319712 102.1953125 44.12319712 102.1953125 41.5078125 102.1953125 C41.5078125 102.8553125 41.5078125 103.5153125 41.5078125 104.1953125 C39.8578125 104.5253125 38.2078125 104.8553125 36.5078125 105.1953125 C36.5078125 105.8553125 36.5078125 106.5153125 36.5078125 107.1953125 C29.43225751 110.1970631 23.13732805 110.54386905 15.5078125 110.1953125 C15.5078125 110.8553125 15.5078125 111.5153125 15.5078125 112.1953125 C13.02857449 112.22216345 10.5496241 112.24207797 8.0703125 112.2578125 C7.36326172 112.26619141 6.65621094 112.27457031 5.92773438 112.28320312 C4.12087691 112.29184838 2.31393647 112.24751261 0.5078125 112.1953125 C0.1778125 111.8653125 -0.1521875 111.5353125 -0.4921875 111.1953125 C-2.36534526 110.97101853 -4.24088991 110.76661614 -6.1171875 110.5703125 C-14.37814458 109.39672481 -21.16475338 105.9857141 -28.4921875 102.1953125 C-28.4921875 101.5353125 -28.4921875 100.8753125 -28.4921875 100.1953125 C-29.9771875 99.7003125 -29.9771875 99.7003125 -31.4921875 99.1953125 C-31.4921875 98.5353125 -31.4921875 97.8753125 -31.4921875 97.1953125 C-32.1521875 97.1953125 -32.8121875 97.1953125 -33.4921875 97.1953125 C-33.4921875 96.5353125 -33.4921875 95.8753125 -33.4921875 95.1953125 C-34.9771875 94.7003125 -34.9771875 94.7003125 -36.4921875 94.1953125 C-36.4921875 93.5353125 -36.4921875 92.8753125 -36.4921875 92.1953125 C-37.1521875 92.1953125 -37.8121875 92.1953125 -38.4921875 92.1953125 C-38.4921875 91.5353125 -38.4921875 90.8753125 -38.4921875 90.1953125 C-39.4821875 89.8653125 -40.4721875 89.5353125 -41.4921875 89.1953125 C-42.87890625 87.05078125 -42.87890625 87.05078125 -44.1796875 84.3828125 C-44.83517578 83.07376953 -44.83517578 83.07376953 -45.50390625 81.73828125 C-46.4921875 79.1953125 -46.4921875 79.1953125 -46.4921875 75.1953125 C-47.1521875 75.1953125 -47.8121875 75.1953125 -48.4921875 75.1953125 C-48.72005208 73.14453125 -48.94791667 71.09375 -49.17578125 69.04296875 C-49.31105364 67.18391021 -49.31105364 67.18391021 -50.4921875 66.1953125 C-51.15530484 51.51420294 -49.47618573 40.69356805 -43.4921875 27.1953125 C-42.8321875 27.1953125 -42.1721875 27.1953125 -41.4921875 27.1953125 C-41.1828125 26.4115625 -40.8734375 25.6278125 -40.5546875 24.8203125 C-39.4921875 22.1953125 -39.4921875 22.1953125 -38.4921875 20.1953125 C-37.8321875 20.1953125 -37.1721875 20.1953125 -36.4921875 20.1953125 C-36.1621875 19.2053125 -35.8321875 18.2153125 -35.4921875 17.1953125 C-34.8321875 17.1953125 -34.1721875 17.1953125 -33.4921875 17.1953125 C-33.4921875 16.5353125 -33.4921875 15.8753125 -33.4921875 15.1953125 C-32.8321875 15.1953125 -32.1721875 15.1953125 -31.4921875 15.1953125 C-31.1621875 14.2053125 -30.8321875 13.2153125 -30.4921875 12.1953125 C-29.8321875 12.1953125 -29.1721875 12.1953125 -28.4921875 12.1953125 C-28.4921875 11.5353125 -28.4921875 10.8753125 -28.4921875 10.1953125 C-27.5021875 10.1953125 -26.5121875 10.1953125 -25.4921875 10.1953125 C-25.4921875 9.5353125 -25.4921875 8.8753125 -25.4921875 8.1953125 C-23.8421875 7.8653125 -22.1921875 7.5353125 -20.4921875 7.1953125 C-20.4921875 6.5353125 -20.4921875 5.8753125 -20.4921875 5.1953125 C-14.828125 3.046875 -14.828125 3.046875 -12.4921875 2.1953125 C-11.58791016 1.85177734 -10.68363281 1.50824219 -9.75195312 1.15429688 C-6.3171397 0.14381551 -3.57087194 -0.0340083 0 0 Z M-2.4921875 31.1953125 C-2.4921875 31.8553125 -2.4921875 32.5153125 -2.4921875 33.1953125 C-3.1521875 33.1953125 -3.8121875 33.1953125 -4.4921875 33.1953125 C-4.8221875 35.8353125 -5.1521875 38.4753125 -5.4921875 41.1953125 C2.7578125 41.1953125 11.0078125 41.1953125 19.5078125 41.1953125 C20.89977165 37.01943505 19.33104469 35.06056474 17.5078125 31.1953125 C16.8478125 31.1953125 16.1878125 31.1953125 15.5078125 31.1953125 C15.1778125 30.2053125 14.8478125 29.2153125 14.5078125 28.1953125 C13.8478125 28.1953125 13.1878125 28.1953125 12.5078125 28.1953125 C12.5078125 27.5353125 12.5078125 26.8753125 12.5078125 26.1953125 C5.66548486 25.51107974 2.26370889 26.07357792 -2.4921875 31.1953125 Z " fill="#000000" transform="translate(903.4921875,491.8046875)"/>
<path d="M0 0 C8.91 0 17.82 0 27 0 C27 0.66 27 1.32 27 2 C31.95 2.495 31.95 2.495 37 3 C37 3.66 37 4.32 37 5 C37.99 5 38.98 5 40 5 C40 5.66 40 6.32 40 7 C40.7425 7.12375 41.485 7.2475 42.25 7.375 C47.52472796 8.57380181 49.87229494 10.53184991 53 15 C53 15.66 53 16.32 53 17 C54.98 17.495 54.98 17.495 57 18 C57.495 20.475 57.495 20.475 58 23 C58.66 23 59.32 23 60 23 C60 23.66 60 24.32 60 25 C60.66 25 61.32 25 62 25 C62.27714844 25.85464844 62.55429688 26.70929687 62.83984375 27.58984375 C63.20207031 28.69457031 63.56429688 29.79929687 63.9375 30.9375 C64.47697266 32.59072266 64.47697266 32.59072266 65.02734375 34.27734375 C65.73856668 36.88123475 65.73856668 36.88123475 67 38 C68.02051193 43.47626822 68.15203055 48.81571743 68.125 54.375 C68.12886719 55.19355469 68.13273437 56.01210938 68.13671875 56.85546875 C68.126739 62.873261 68.126739 62.873261 67 64 C64.94443339 64.09413687 62.88559819 64.11742998 60.82788086 64.11352539 C60.18399918 64.11367142 59.54011749 64.11381744 58.87672424 64.1139679 C56.73939697 64.11326885 54.60215587 64.10547691 52.46484375 64.09765625 C50.98653715 64.09579204 49.50822993 64.09436815 48.02992249 64.09336853 C44.13201198 64.08954359 40.23413851 64.07971352 36.33624268 64.06866455 C32.36153667 64.05844992 28.38682471 64.0538708 24.41210938 64.04882812 C16.608056 64.03809122 8.80403318 64.02101509 1 64 C1.14953125 65.26070312 1.2990625 66.52140625 1.453125 67.8203125 C1.53723633 68.52945801 1.62134766 69.23860352 1.70800781 69.96923828 C2.0908268 72.63168671 2.63073113 74.67224292 4 77 C6.52372901 78.36078035 6.52372901 78.36078035 9 79 C9 79.66 9 80.32 9 81 C14.94 81 20.88 81 27 81 C27 80.34 27 79.68 27 79 C28.32 79 29.64 79 31 79 C31 78.34 31 77.68 31 77 C32.32 76.67 33.64 76.34 35 76 C35 75.34 35 74.68 35 74 C35.66 74 36.32 74 37 74 C37 73.34 37 72.68 37 72 C41.89850621 69.55074689 46.81840347 70.61506752 51.7890625 72.234375 C62.71865025 76.40884265 62.71865025 76.40884265 67 80 C66.125 84.75 66.125 84.75 65 87 C64.34 87 63.68 87 63 87 C62.62875 88.0828125 62.62875 88.0828125 62.25 89.1875 C60.87730408 92.27606582 59.27646704 94.51011418 57 97 C56.34 97 55.68 97 55 97 C55 97.66 55 98.32 55 99 C53.04402816 100.39712274 51.0340906 101.71927629 49 103 C48.071875 103.680625 47.14375 104.36125 46.1875 105.0625 C38.27953864 109.86930004 31.1452337 110.41780255 22 110 C22 110.66 22 111.32 22 112 C19.52076199 112.02685095 17.0418116 112.04676547 14.5625 112.0625 C13.85544922 112.07087891 13.14839844 112.07925781 12.41992188 112.08789062 C10.61306441 112.09653588 8.80612397 112.05220011 7 112 C6.67 111.67 6.34 111.34 6 111 C4.12684224 110.77570603 2.25129759 110.57130364 0.375 110.375 C-7.88595708 109.20141231 -14.67256588 105.7904016 -22 102 C-22 101.34 -22 100.68 -22 100 C-23.485 99.505 -23.485 99.505 -25 99 C-25 98.34 -25 97.68 -25 97 C-25.66 97 -26.32 97 -27 97 C-27 96.34 -27 95.68 -27 95 C-27.99 94.67 -28.98 94.34 -30 94 C-30 93.34 -30 92.68 -30 92 C-30.66 92 -31.32 92 -32 92 C-32 91.34 -32 90.68 -32 90 C-32.99 89.67 -33.98 89.34 -35 89 C-37.21751399 85.30414334 -38 83.36991627 -38 79 C-38.66 79 -39.32 79 -40 79 C-43.28745005 71.76760989 -43.15805219 64.28930003 -43.125 56.5 C-43.12886719 55.58863281 -43.13273437 54.67726563 -43.13671875 53.73828125 C-43.12572717 46.12111446 -42.53176727 39.6237766 -39.4375 32.5625 C-38.98246094 31.51191406 -38.52742188 30.46132813 -38.05859375 29.37890625 C-37.70925781 28.59386719 -37.35992188 27.80882812 -37 27 C-36.34 27 -35.68 27 -35 27 C-34.690625 26.21625 -34.38125 25.4325 -34.0625 24.625 C-33 22 -33 22 -32 20 C-31.34 20 -30.68 20 -30 20 C-29.67 19.01 -29.34 18.02 -29 17 C-28.34 17 -27.68 17 -27 17 C-27 16.34 -27 15.68 -27 15 C-26.34 15 -25.68 15 -25 15 C-24.67 14.01 -24.34 13.02 -24 12 C-23.34 12 -22.68 12 -22 12 C-22 11.34 -22 10.68 -22 10 C-21.01 10 -20.02 10 -19 10 C-19 9.34 -19 8.68 -19 8 C-17.35 7.67 -15.7 7.34 -14 7 C-14 6.34 -14 5.68 -14 5 C-12.68 5 -11.36 5 -10 5 C-10 4.34 -10 3.68 -10 3 C-6.7 2.67 -3.4 2.34 0 2 C0 1.34 0 0.68 0 0 Z M4 31 C1.6822871 34.78559774 1 36.5141985 1 41 C9.25 41 17.5 41 26 41 C27.09658936 37.71023192 26.79953138 36.28696233 26 33 C25.34 33 24.68 33 24 33 C24 32.34 24 31.68 24 31 C23.34 31 22.68 31 22 31 C21.67 30.01 21.34 29.02 21 28 C20.34 28 19.68 28 19 28 C19 27.34 19 26.68 19 26 C12.32221169 25.33222117 8.76287757 25.78351504 4 31 Z " fill="#000000" transform="translate(1669,492)"/>
<path d="M0 0 C4.14427102 -0.04976954 8.28837953 -0.08589288 12.43286133 -0.10986328 C13.84011876 -0.11986557 15.2473557 -0.13347178 16.65454102 -0.15087891 C18.68771448 -0.17538366 20.72061106 -0.18654083 22.75390625 -0.1953125 C23.97408447 -0.20578613 25.1942627 -0.21625977 26.45141602 -0.22705078 C33.0351885 0.19420195 38.57375831 2.52450977 44.375 5.4375 C45.31666016 5.88706055 45.31666016 5.88706055 46.27734375 6.34570312 C47.89390972 7.15049461 49.4528072 8.06878074 51 9 C51.495 10.485 51.495 10.485 52 12 C54.50447516 13.21869929 54.50447516 13.21869929 57 14 C57 14.99 57 15.98 57 17 C57.639375 17.185625 58.27875 17.37125 58.9375 17.5625 C61 19 61 19 61.8125 22.5 C62 26 62 26 61 28 C59.68 28 58.36 28 57 28 C57 28.66 57 29.32 57 30 C55.02 30.33 53.04 30.66 51 31 C51 31.66 51 32.32 51 33 C49.68 33 48.36 33 47 33 C47 33.66 47 34.32 47 35 C43.98509443 36.00496852 41.95818308 36.10335303 38.8125 36.0625 C37.91144531 36.05347656 37.01039062 36.04445313 36.08203125 36.03515625 C35.39496094 36.02355469 34.70789062 36.01195312 34 36 C33.67 35.01 33.34 34.02 33 33 C32.34 33 31.68 33 31 33 C31 32.34 31 31.68 31 31 C29.35 30.67 27.7 30.34 26 30 C26 29.34 26 28.68 26 28 C25.01 28 24.02 28 23 28 C23 27.34 23 26.68 23 26 C18.05 26 13.1 26 8 26 C8 26.66 8 27.32 8 28 C7.01 28.495 7.01 28.495 6 29 C5.34786708 31.02463255 5.34786708 31.02463255 5 33 C5.99 33 6.98 33 8 33 C8 33.66 8 34.32 8 35 C9.175625 34.979375 10.35125 34.95875 11.5625 34.9375 C15.45179881 34.9375 19.1668674 35.29595524 23 36 C23.33 36.33 23.66 36.66 24 37 C25.155 37.165 26.31 37.33 27.5 37.5 C31 38 31 38 32 39 C33.66301951 39.27321035 35.33071112 39.51815432 37 39.75 C42.76523672 40.72971343 47.12319959 42.84513159 52 46 C52 46.66 52 47.32 52 48 C52.598125 48.12375 53.19625 48.2475 53.8125 48.375 C57.82821096 49.52234599 59.57767983 51.51567619 61.5625 55 C67.45198625 66.05165643 66.44046626 77.14630675 64 89 C63.34 89 62.68 89 62 89 C61.814375 90.1446875 61.814375 90.1446875 61.625 91.3125 C61 94 61 94 59 97 C58.34 97 57.68 97 57 97 C57 97.66 57 98.32 57 99 C56.21625 99.0825 55.4325 99.165 54.625 99.25 C53.75875 99.4975 52.8925 99.745 52 100 C51.5359375 100.99 51.5359375 100.99 51.0625 102 C50.711875 102.66 50.36125 103.32 50 104 C46.875 104.75 46.875 104.75 44 105 C44 105.66 44 106.32 44 107 C37.69495238 109.17462597 31.81688354 110.39648091 25.15234375 110.7890625 C23.02029296 110.76811816 23.02029296 110.76811816 22 112 C19.46950598 112.07313567 16.96695163 112.09247527 14.4375 112.0625 C13.37112305 112.05573242 13.37112305 112.05573242 12.28320312 112.04882812 C10.52209987 112.03700864 8.76103964 112.01907263 7 112 C7 111.34 7 110.68 7 110 C6.24976563 110.03480469 5.49953125 110.06960938 4.7265625 110.10546875 C-6.71694266 110.40813073 -15.0135882 107.37566422 -25 102 C-25 101.34 -25 100.68 -25 100 C-25.61875 99.9175 -26.2375 99.835 -26.875 99.75 C-29.67505419 98.76174558 -29.74113932 97.59640015 -31 95 C-31.64195313 94.71898437 -32.28390625 94.43796875 -32.9453125 94.1484375 C-35.61708201 92.65509104 -35.95880464 91.43859781 -36.875 88.5625 C-37.14054687 87.78003906 -37.40609375 86.99757813 -37.6796875 86.19140625 C-38 84 -38 84 -36 81 C-35.01 81 -34.02 81 -33 81 C-33 80.34 -33 79.68 -33 79 C-32.01 79 -31.02 79 -30 79 C-30 78.34 -30 77.68 -30 77 C-26.535 76.505 -26.535 76.505 -23 76 C-23 75.34 -23 74.68 -23 74 C-22.01 74 -21.02 74 -20 74 C-20 73.34 -20 72.68 -20 72 C-12.78777589 70.65534805 -12.78777589 70.65534805 -9 72.3125 C-8.34 72.869375 -7.68 73.42625 -7 74 C-7 74.66 -7 75.32 -7 76 C-6.01 76.33 -5.02 76.66 -4 77 C-4 77.66 -4 78.32 -4 79 C-3.34 79 -2.68 79 -2 79 C-2 79.66 -2 80.32 -2 81 C0.64 81.33 3.28 81.66 6 82 C6 82.66 6 83.32 6 84 C8.20904631 83.91224337 10.41728593 83.80405633 12.625 83.6875 C13.85476563 83.62949219 15.08453125 83.57148437 16.3515625 83.51171875 C20.19894106 82.97209713 22.70617218 82.03328667 26 80 C26.99 78.515 26.99 78.515 28 77 C24.0254058 75.19336627 20.30982872 74.58016925 16 74 C15.67 73.67 15.34 73.34 15 73 C12.14471393 72.599617 9.30263513 72.2481773 6.4375 71.9375 C5.63119141 71.84662109 4.82488281 71.75574219 3.99414062 71.66210938 C1.99652623 71.43752551 -0.0016856 71.21826764 -2 71 C-2 70.34 -2 69.68 -2 69 C-2.804375 69.061875 -3.60875 69.12375 -4.4375 69.1875 C-8.97648733 68.94860593 -12.76901601 67.57956736 -17 66 C-17 65.34 -17 64.68 -17 64 C-17.86625 63.814375 -17.86625 63.814375 -18.75 63.625 C-23.11592021 62.41224439 -25.61035858 60.94290835 -28 57 C-28 56.01 -28 55.02 -28 54 C-28.66 54 -29.32 54 -30 54 C-30.33 52.02 -30.66 50.04 -31 48 C-31.66 48 -32.32 48 -33 48 C-33 41.07 -33 34.14 -33 27 C-32.34 27 -31.68 27 -31 27 C-30.814375 25.3603125 -30.814375 25.3603125 -30.625 23.6875 C-30 20 -30 20 -28 17 C-27.34 17 -26.68 17 -26 17 C-25.896875 16.401875 -25.79375 15.80375 -25.6875 15.1875 C-24.90175967 12.68741714 -24.03081147 11.62464918 -22 10 C-21.34 10 -20.68 10 -20 10 C-20 9.34 -20 8.68 -20 8 C-18.35 7.67 -16.7 7.34 -15 7 C-15 6.34 -15 5.68 -15 5 C-9.63999211 2.74315457 -5.8022175 1.63736141 0 2 C0 1.34 0 0.68 0 0 Z " fill="#000000" transform="translate(1473,492)"/>
<path d="M0 0 C1.11708092 -0.00855011 1.11708092 -0.00855011 2.25672913 -0.01727295 C3.83284076 -0.02672291 5.40897216 -0.03325692 6.98510742 -0.03710938 C9.39732228 -0.04682332 11.80868802 -0.07784861 14.22070312 -0.109375 C15.75129702 -0.11590432 17.28189701 -0.12115507 18.8125 -0.125 C19.8954258 -0.1435202 19.8954258 -0.1435202 21.00022888 -0.16241455 C23.76849646 -0.1500888 25.96614823 -0.06842133 28.43310547 1.25415039 C30.05803788 4.30061245 29.83934688 7.35175961 29.765625 10.71484375 C29.76138016 11.44306839 29.75713531 12.17129303 29.75276184 12.92158508 C29.73598358 15.24497627 29.6983348 17.5674965 29.66015625 19.890625 C29.64510822 21.46678434 29.63142002 23.04295729 29.61914062 24.61914062 C29.5860831 28.48080377 29.53430819 32.34181678 29.47265625 36.203125 C30.50205322 36.18741455 30.50205322 36.18741455 31.55224609 36.17138672 C34.65067914 36.12990626 37.74905386 36.10382431 40.84765625 36.078125 C41.92789062 36.06136719 43.008125 36.04460937 44.12109375 36.02734375 C45.15234375 36.02089844 46.18359375 36.01445312 47.24609375 36.0078125 C48.67574463 35.99210205 48.67574463 35.99210205 50.13427734 35.97607422 C52.47265625 36.203125 52.47265625 36.203125 54.47265625 38.203125 C54.69970703 40.72509766 54.69970703 40.72509766 54.66796875 43.8671875 C54.66152344 44.98867188 54.65507813 46.11015625 54.6484375 47.265625 C54.62330078 49.0290625 54.62330078 49.0290625 54.59765625 50.828125 C54.58863281 52.01148438 54.57960938 53.19484375 54.5703125 54.4140625 C54.54668437 57.34395023 54.51374139 60.2734384 54.47265625 63.203125 C53.81265625 63.203125 53.15265625 63.203125 52.47265625 63.203125 C52.47265625 63.863125 52.47265625 64.523125 52.47265625 65.203125 C44.55265625 65.203125 36.63265625 65.203125 28.47265625 65.203125 C28.80265625 80.053125 29.13265625 94.903125 29.47265625 110.203125 C31.12265625 110.533125 32.77265625 110.863125 34.47265625 111.203125 C34.47265625 111.863125 34.47265625 112.523125 34.47265625 113.203125 C36.38691406 113.15091797 36.38691406 113.15091797 38.33984375 113.09765625 C40.00910146 113.06952269 41.67837335 113.04222207 43.34765625 113.015625 C44.18941406 112.99048828 45.03117187 112.96535156 45.8984375 112.93945312 C46.70410156 112.92978516 47.50976562 112.92011719 48.33984375 112.91015625 C49.08347168 112.8944458 49.82709961 112.87873535 50.59326172 112.86254883 C51.21346191 112.97493896 51.83366211 113.0873291 52.47265625 113.203125 C55.37958155 117.56351295 54.80239906 121.51261276 54.78515625 126.640625 C54.80126953 127.59517578 54.81738281 128.54972656 54.83398438 129.53320312 C54.83462891 130.45423828 54.83527344 131.37527344 54.8359375 132.32421875 C54.83891846 133.1639624 54.84189941 134.00370605 54.8449707 134.86889648 C54.37639766 137.80661904 53.55427894 139.08629276 51.47265625 141.203125 C47.08128262 143.73770967 42.58993094 143.49341723 37.6640625 143.46875 C36.81972153 143.47066345 35.97538055 143.4725769 35.10545349 143.47454834 C33.32444968 143.47590582 31.54343582 143.47223996 29.76245117 143.46386719 C27.0477862 143.45317475 24.33378495 143.46377034 21.61914062 143.4765625 C19.88411313 143.47524057 18.14908605 143.47267747 16.4140625 143.46875 C15.60763809 143.47279846 14.80121368 143.47684692 13.97035217 143.48101807 C9.41487915 143.44343824 5.76315647 142.93151133 1.47265625 141.203125 C1.47265625 140.543125 1.47265625 139.883125 1.47265625 139.203125 C-0.50734375 138.873125 -2.48734375 138.543125 -4.52734375 138.203125 C-4.52734375 137.543125 -4.52734375 136.883125 -4.52734375 136.203125 C-5.18734375 136.203125 -5.84734375 136.203125 -6.52734375 136.203125 C-8.15234375 134.828125 -8.15234375 134.828125 -9.52734375 133.203125 C-9.52734375 132.543125 -9.52734375 131.883125 -9.52734375 131.203125 C-10.18734375 131.203125 -10.84734375 131.203125 -11.52734375 131.203125 C-11.85734375 128.563125 -12.18734375 125.923125 -12.52734375 123.203125 C-13.18734375 123.203125 -13.84734375 123.203125 -14.52734375 123.203125 C-14.52734375 104.063125 -14.52734375 84.923125 -14.52734375 65.203125 C-19.47734375 65.203125 -24.42734375 65.203125 -29.52734375 65.203125 C-30.52734375 64.203125 -30.52734375 64.203125 -30.64086914 61.51928711 C-30.63563232 60.35147705 -30.63039551 59.18366699 -30.625 57.98046875 C-30.62177734 56.72041016 -30.61855469 55.46035156 -30.61523438 54.16210938 C-30.60687778 52.82161391 -30.59841282 51.48111912 -30.58984375 50.140625 C-30.58483035 48.79622558 -30.58026717 47.4518244 -30.57617188 46.10742188 C-30.56433872 42.80597067 -30.54640261 39.5045424 -30.52734375 36.203125 C-22.11234375 35.708125 -22.11234375 35.708125 -13.52734375 35.203125 C-13.39457031 33.33785156 -13.26179688 31.47257812 -13.125 29.55078125 C-12.9468546 27.12237821 -12.76845616 24.69399373 -12.58984375 22.265625 C-12.50283203 21.03392578 -12.41582031 19.80222656 -12.32617188 18.53320312 C-12.23916016 17.36337891 -12.15214844 16.19355469 -12.0625 14.98828125 C-11.98394775 13.90426025 -11.90539551 12.82023926 -11.82446289 11.70336914 C-11.52734375 9.203125 -11.52734375 9.203125 -10.52734375 8.203125 C-10.38296875 7.048125 -10.23859375 5.893125 -10.08984375 4.703125 C-9.90421875 3.548125 -9.71859375 2.393125 -9.52734375 1.203125 C-6.49244479 -0.31432448 -3.33058389 0.0195512 0 0 Z " fill="#000000" transform="translate(1569.52734375,457.796875)"/>
<path d="M0 0 C2.29141286 -0.05384521 4.58318188 -0.09272087 6.875 -0.125 C8.78925781 -0.15980469 8.78925781 -0.15980469 10.7421875 -0.1953125 C14 0 14 0 16 2 C16.17532289 4.86888581 16.23137614 7.63992645 16.1953125 10.5078125 C16.1924826 11.34843231 16.18965271 12.18905212 16.18673706 13.05514526 C16.1755243 15.74524046 16.15041803 18.4350051 16.125 21.125 C16.1149716 22.94660978 16.10584551 24.76822477 16.09765625 26.58984375 C16.07558142 31.06002358 16.04104434 35.52995571 16 40 C14.37509046 40.02698189 12.75005367 40.04638757 11.125 40.0625 C10.22007813 40.07410156 9.31515625 40.08570313 8.3828125 40.09765625 C6 40 6 40 4 39 C1.71080222 38.87664724 -0.58251218 38.82441522 -2.875 38.8125 C-4.10992188 38.79832031 -5.34484375 38.78414062 -6.6171875 38.76953125 C-9.81684686 38.9875219 -11.29019572 39.46282403 -14 41 C-14.99 41 -15.98 41 -17 41 C-17 41.66 -17 42.32 -17 43 C-17.66 43 -18.32 43 -19 43 C-19.33 44.98 -19.66 46.96 -20 49 C-20.66 49 -21.32 49 -22 49 C-21.99555878 49.72218719 -21.99111755 50.44437439 -21.98654175 51.18844604 C-21.94650625 57.98666022 -21.91603662 64.78485684 -21.89637566 71.58315849 C-21.88592802 75.07843927 -21.87175117 78.57362283 -21.84912109 82.06884766 C-21.82328047 86.08497056 -21.81353534 90.10099097 -21.8046875 94.1171875 C-21.79436493 95.37554413 -21.78404236 96.63390076 -21.77340698 97.9303894 C-21.77318039 99.67196823 -21.77318039 99.67196823 -21.77294922 101.44873047 C-21.768508 102.47465302 -21.76406677 103.50057556 -21.75949097 104.55758667 C-22 107 -22 107 -24 109 C-26.86888581 109.17532289 -29.63992645 109.23137614 -32.5078125 109.1953125 C-33.76874222 109.19106766 -33.76874222 109.19106766 -35.05514526 109.18673706 C-37.74524046 109.1755243 -40.4350051 109.15041803 -43.125 109.125 C-44.94660978 109.1149716 -46.76822477 109.10584551 -48.58984375 109.09765625 C-53.06002358 109.07558142 -57.52995571 109.04104434 -62 109 C-63.63866397 106.11408712 -64.24970943 104.05366054 -64.24723816 100.74278259 C-64.25143265 99.90020401 -64.25562714 99.05762543 -64.25994873 98.18951416 C-64.25432922 97.27353455 -64.24870972 96.35755493 -64.24291992 95.41381836 C-64.24481827 94.44269608 -64.24671661 93.47157379 -64.24867249 92.47102356 C-64.25237765 89.26054821 -64.24168006 86.050299 -64.23046875 82.83984375 C-64.22927674 80.61072313 -64.22882383 78.381602 -64.2290802 76.15248108 C-64.22751581 71.48109797 -64.21922901 66.80979155 -64.20581055 62.13842773 C-64.188811 56.14369361 -64.18499653 50.1490437 -64.18575573 44.15428829 C-64.18548412 39.55187676 -64.18000454 34.94948372 -64.17275429 30.34707832 C-64.16956725 28.13622744 -64.16760013 25.92537446 -64.16686058 23.71452141 C-64.16469796 20.62857347 -64.1559556 17.54271574 -64.14526367 14.45678711 C-64.14571686 13.53878326 -64.14617004 12.62077942 -64.14663696 11.67495728 C-64.14237198 10.83519852 -64.13810699 9.99543976 -64.13371277 9.13023376 C-64.13203692 8.40076003 -64.13036108 7.6712863 -64.12863445 6.9197073 C-64 5 -64 5 -63 2 C-57.48245195 1.92597207 -51.96519144 1.87145634 -46.44726562 1.83520508 C-44.56928474 1.82009675 -42.69133924 1.79960906 -40.81347656 1.77368164 C-38.11774981 1.73738754 -35.42248854 1.72029455 -32.7265625 1.70703125 C-31.46243027 1.68380547 -31.46243027 1.68380547 -30.17276001 1.66011047 C-27.80712891 1.65942383 -27.80712891 1.65942383 -24 2 C-21.79086 5.31371 -21.77518447 6.3446021 -21.875 10.1875 C-21.89304687 11.08855469 -21.91109375 11.98960937 -21.9296875 12.91796875 C-21.95289063 13.60503906 -21.97609375 14.29210937 -22 15 C-21.34 15 -20.68 15 -20 15 C-20 14.34 -20 13.68 -20 13 C-18.625 11.375 -18.625 11.375 -17 10 C-16.34 10 -15.68 10 -15 10 C-15 9.34 -15 8.68 -15 8 C-13.35 7.67 -11.7 7.34 -10 7 C-10 6.34 -10 5.68 -10 5 C-6.58168085 2.4606772 -4.24223102 1.6363802 0 2 C0 1.34 0 0.68 0 0 Z " fill="#000000" transform="translate(1810,492)"/>
<path d="M0 0 C1.36640022 -0.00187325 2.7327999 -0.00417598 4.09919876 -0.00686532 C7.81654367 -0.01292635 11.53386591 -0.01285653 15.25121462 -0.01167095 C19.27526795 -0.01146548 23.29931427 -0.01699954 27.32336426 -0.02172852 C35.19370681 -0.03000453 43.06404187 -0.03278198 50.93438841 -0.03334089 C57.33836997 -0.03381755 63.74234909 -0.03587975 70.14632988 -0.03904152 C88.34027137 -0.04784014 106.53420698 -0.05246219 124.72815061 -0.05171105 C126.19676734 -0.05165111 126.19676734 -0.05165111 127.6950531 -0.05158997 C128.67533948 -0.05154909 129.65562585 -0.0515082 130.66561788 -0.05146609 C146.53954581 -0.05105995 162.41344998 -0.06062346 178.28737105 -0.07472833 C194.62334013 -0.08912811 210.95929766 -0.09599652 227.29527324 -0.09513456 C236.45184931 -0.09480381 245.60840047 -0.09749707 254.76497078 -0.10831261 C262.56308642 -0.1174652 270.36116588 -0.11955414 278.1592846 -0.11280318 C282.12937538 -0.10956168 286.09939692 -0.10939428 290.0694809 -0.11815643 C324.24583913 -0.18868245 358.50731296 0.6306342 386.9672699 22.13371277 C386.6372699 22.79371277 386.3072699 23.45371277 385.9672699 24.13371277 C382.13020929 22.0110835 378.52374452 19.82315367 374.9672699 17.25871277 C363.88742352 9.79638888 351.02480642 6.54899279 337.87742615 5.37980652 C335.9672699 5.13371277 335.9672699 5.13371277 332.9672699 4.13371277 C332.0185199 4.13371277 331.0697699 4.13371277 330.0922699 4.13371277 C326.9672699 4.13371277 326.9672699 4.13371277 324.64600873 3.64157784 C321.69761802 3.08258917 318.98326234 3.00833893 315.98244858 3.00787163 C314.77482196 3.00526388 313.56719533 3.00265613 312.32297397 2.99996936 C310.98636787 3.00213131 309.64976192 3.00438796 308.31315613 3.00672913 C306.89062181 3.00557689 305.46808779 3.00398867 304.0455544 3.00200188 C300.1366323 2.99782291 296.22773457 2.99989279 292.31881237 3.0029881 C288.10343446 3.0052477 283.88806079 3.00175984 279.67268372 2.99900818 C271.41591893 2.99455799 263.15916322 2.99552349 254.90239808 2.99842082 C248.19533524 3.00067718 241.48827496 3.00098636 234.78121185 2.999897 C233.35057471 2.99966715 233.35057471 2.99966715 231.89103581 2.99943266 C229.95368121 2.99911295 228.01632661 2.99878873 226.07897201 2.99846007 C207.90738664 2.99560763 189.73580631 2.99888892 171.56422177 3.00426044 C155.95638112 3.00873113 140.34854791 3.0079499 124.7407074 3.00334167 C106.62891812 2.99799669 88.51713325 2.99587927 70.40534329 2.99895394 C68.47625049 2.9992725 66.54715769 2.99958687 64.61806488 2.999897 C63.19420746 3.00012842 63.19420746 3.00012842 61.74158524 3.0003645 C55.03691279 3.00122967 48.33224313 2.99976685 41.62757111 2.99741745 C33.46530953 2.99462022 25.30305758 2.99535619 17.14079711 3.00069819 C12.97263463 3.00333582 8.80448822 3.00433921 4.63632584 3.00104904 C0.82705777 2.9980875 -2.98217918 2.99967648 -6.79144439 3.00502659 C-8.17555629 3.00615136 -9.55967078 3.00555831 -10.94378105 3.00315081 C-12.8129434 3.00014689 -14.68211302 3.0038002 -16.55127335 3.00787163 C-17.59317361 3.00803398 -18.63507388 3.00819633 -19.70854688 3.0083636 C-21.99378462 2.87210066 -21.99378462 2.87210066 -23.0327301 4.13371277 C-25.01842255 4.13371277 -27.00418086 4.13136108 -28.98976135 4.11027527 C-31.46392957 4.13865961 -33.62820176 4.54724244 -36.0327301 5.13371277 C-37.47000435 5.44724943 -38.90753111 5.75962954 -40.3452301 6.07121277 C-41.90810917 6.42370291 -43.47061462 6.77785396 -45.0327301 7.13371277 C-45.73011292 7.28840027 -46.42749573 7.44308777 -47.14601135 7.60246277 C-51.69814974 8.66315521 -55.75248831 10.21498369 -60.0327301 12.13371277 C-60.75976135 12.37476746 -61.4867926 12.61582214 -62.2358551 12.86418152 C-79.32973209 18.73675539 -91.1189324 33.47098814 -99.0327301 49.13371277 C-102.38882782 56.60103018 -103.94724906 64.05034334 -105.0327301 72.13371277 C-105.99243636 78.97469585 -105.99243636 78.97469585 -106.52553564 81.07854134 C-108.52919945 89.19746404 -108.18463297 97.71251788 -108.19094849 106.00982666 C-108.19552133 107.4076533 -108.2005224 108.80547859 -108.20591205 110.20330232 C-108.21942038 114.02529561 -108.22689019 117.84728007 -108.23333871 121.6692909 C-108.24137497 125.79801611 -108.25506155 129.92672312 -108.26805115 134.05543518 C-108.28976831 141.20238739 -108.30793011 148.34934148 -108.32365608 155.49630928 C-108.34639819 165.82954104 -108.37453492 176.16275261 -108.40397536 186.4959672 C-108.45159815 203.26216969 -108.49487668 220.02838044 -108.53541565 236.79460144 C-108.57479765 253.07846215 -108.61623033 269.36231552 -108.66041565 285.64616394 C-108.66313992 286.65041694 -108.66586419 287.65466994 -108.66867102 288.68935484 C-108.68235094 293.72755124 -108.69607113 298.76574752 -108.70981133 303.80394375 C-108.82369261 345.58051811 -108.93052036 387.35710833 -109.0327301 429.13371277 C-111.0327301 427.13371277 -111.0327301 427.13371277 -111.28227776 424.80058086 C-111.28206039 423.81362732 -111.28184303 422.82667377 -111.28161907 421.80981255 C-111.28621787 420.67314388 -111.29081666 419.53647522 -111.29555482 418.36536205 C-111.29041125 417.10587061 -111.28526769 415.84637916 -111.27996826 414.54872131 C-111.28155527 413.20546249 -111.28401779 411.86220446 -111.28728467 410.51894867 C-111.29372293 406.81460243 -111.28761079 403.1103648 -111.27952039 399.40602565 C-111.27296122 395.41525713 -111.27788824 391.42450112 -111.28140259 387.43373108 C-111.28645485 379.60665634 -111.28078853 371.77962372 -111.27155229 363.95255421 C-111.26117624 354.83148524 -111.26123834 345.71042543 -111.26172487 336.58935167 C-111.26222609 320.30123268 -111.25305156 304.01313328 -111.23854065 287.72502136 C-111.22448457 271.93921043 -111.21736847 256.15341676 -111.21803284 240.36759949 C-111.21807279 239.39743684 -111.21811275 238.42727418 -111.21815392 237.42771266 C-111.21819427 236.45919483 -111.21823463 235.49067699 -111.2182762 234.49281013 C-111.21896792 216.51214419 -111.21306099 198.53148555 -111.20412299 180.55082198 C-111.20111625 174.2033897 -111.20004453 167.85595877 -111.19959068 161.50852585 C-111.19890517 153.7546837 -111.19439459 146.00085384 -111.18525787 138.24701689 C-111.18067059 134.29574667 -111.17758286 130.34449206 -111.17885208 126.39321899 C-111.18866227 86.42900564 -111.18866227 86.42900564 -107.7827301 71.00871277 C-107.55875549 69.9795575 -107.33478088 68.95040222 -107.10401917 67.89006042 C-103.29182391 50.91696949 -97.23463346 35.97303436 -84.0327301 24.13371277 C-83.27089417 23.32933777 -82.50905823 22.52496277 -81.72413635 21.69621277 C-61.01945312 1.98319071 -26.78810325 -0.03344723 0 0 Z " fill="#010102" transform="translate(230.03273010253906,276.8662872314453)"/>
<path d="M0 0 C0.66 0 1.32 0 2 0 C2.02291302 41.51291168 2.04052193 83.02582263 2.05106533 124.53873938 C2.05231596 129.4450971 2.05361029 134.3514548 2.05493164 139.2578125 C2.05532511 140.72289952 2.05532511 140.72289952 2.05572652 142.21758425 C2.0600721 158.01096781 2.06795352 173.8043477 2.0771528 189.59772909 C2.08652029 205.81574409 2.09206216 222.03375719 2.09408849 238.25177479 C2.09545729 248.25073475 2.099773 258.24968436 2.10791647 268.24864113 C2.11322213 275.11498505 2.11479564 281.98132366 2.11350138 288.84766948 C2.11286395 292.80297916 2.11380758 296.75827083 2.11920547 300.71357727 C2.1708517 340.63715921 2.1708517 340.63715921 -1.25 356.125 C-1.47397461 357.15415527 -1.69794922 358.18331055 -1.92871094 359.24365234 C-5.74090619 376.21674327 -11.79809664 391.16067841 -25 403 C-26.14275391 404.2065625 -26.14275391 404.2065625 -27.30859375 405.4375 C-48.01327698 425.15052206 -82.24462685 427.16715999 -109.0327301 427.13371277 C-110.39913032 427.13558602 -111.76553001 427.13788875 -113.13192886 427.14057809 C-116.84927378 427.14663912 -120.56659601 427.1465693 -124.28394473 427.14538372 C-128.30799805 427.14517825 -132.33204437 427.15071231 -136.35609436 427.15544128 C-144.22643691 427.1637173 -152.09677197 427.16649475 -159.96711851 427.16705366 C-166.37110008 427.16753032 -172.77507919 427.16959251 -179.17905998 427.17275429 C-197.37300147 427.18155291 -215.56693708 427.18617496 -233.76088072 427.18542381 C-234.73995854 427.18538386 -235.71903636 427.1853439 -236.7277832 427.18530273 C-237.70806958 427.18526185 -238.68835595 427.18522097 -239.69834798 427.18517885 C-255.57227591 427.18477271 -271.44618008 427.19433623 -287.32010115 427.2084411 C-303.65607023 427.22284088 -319.99202776 427.22970929 -336.32800335 427.22884732 C-345.48457941 427.22851657 -354.64113057 427.23120984 -363.79770088 427.24202538 C-371.59581653 427.25117797 -379.39389598 427.25326691 -387.1920147 427.24651595 C-391.16210548 427.24327445 -395.13212702 427.24310705 -399.102211 427.2518692 C-432.56689081 427.32092661 -468.4873879 427.01008968 -496 405 C-496 404.34 -496 403.68 -496 403 C-492.3128817 404.32241169 -489.49550463 405.95907594 -486.375 408.3125 C-474.82885001 416.50873608 -461.09179449 420.86156203 -446.9921875 421.85546875 C-444.60766901 422.02846323 -442.34309793 422.53138041 -440 423 C-431.9425351 424.09689534 -423.92891295 424.14089407 -415.80949402 424.12698364 C-414.38962 424.12813763 -412.96974628 424.12972702 -411.54987317 424.13171089 C-407.67137173 424.13586575 -403.79289505 424.13383099 -399.91439354 424.13072467 C-395.72288546 424.12845518 -391.53138152 424.13195781 -387.33987427 424.13470459 C-379.13926904 424.13914412 -370.93867299 424.13819406 -362.73806741 424.13529195 C-356.07454146 424.13303155 -349.41101807 424.13272815 -342.74749184 424.13381577 C-341.79834144 424.133969 -340.84919105 424.13412223 -339.87127853 424.13428011 C-337.94303152 424.13459984 -336.01478452 424.13492405 -334.08653752 424.1352527 C-316.02020219 424.13810197 -297.95387195 424.13482873 -279.88753746 424.12945233 C-264.3827861 424.12498118 -248.87804223 424.12576386 -233.37329102 424.13037109 C-215.36287367 424.13572039 -197.35246077 424.13783113 -179.34204274 424.13475883 C-177.42250494 424.13444028 -175.50296714 424.13412591 -173.58342934 424.13381577 C-172.16677476 424.13358435 -172.16677476 424.13358435 -170.7215009 424.13334826 C-164.06273258 424.13248445 -157.40396708 424.13394301 -150.7451992 424.13629532 C-142.63550805 424.13909728 -134.52582657 424.13834649 -126.41613653 424.13301457 C-122.27782265 424.13038351 -118.13952493 424.12936254 -114.00121117 424.13266373 C-110.21475514 424.13563863 -106.42833028 424.13401387 -102.64187709 424.12868617 C-100.61997268 424.12703618 -98.59806611 424.13030884 -96.57616395 424.13374341 C-94.77827454 424.12983178 -94.77827454 424.12983178 -92.94406414 424.12584114 C-91.90943088 424.12567879 -90.87479762 424.12551644 -89.80881184 424.12534916 C-87.09705494 424.00433128 -84.64362489 423.59332723 -82 423 C-80.50211006 422.81532864 -79.00194882 422.64807946 -77.5 422.5 C-74.27904106 422.15565406 -71.16370541 421.71183372 -68 421 C-67.37996094 420.87882812 -66.75992187 420.75765625 -66.12109375 420.6328125 C-46.22831944 416.57596765 -28.67770523 406.94906677 -17 390 C-10.51207473 379.69294141 -5.99960888 368.64711745 -4.359375 356.55859375 C-4.04291171 354.3055127 -3.57251833 352.19773166 -3 350 C-2.63473747 347.67145135 -2.30649316 345.33701038 -2 343 C-1.82795075 341.72021302 -1.65590151 340.44042604 -1.47863865 339.12185764 C-0.79154372 332.83634979 -0.84663344 326.5541922 -0.84178162 320.23777771 C-0.83720866 318.85232546 -0.83220758 317.46687457 -0.82681805 316.08142525 C-0.81331101 312.29363671 -0.80584029 308.50585708 -0.79939139 304.71805084 C-0.79135456 300.6261357 -0.77766818 296.53423891 -0.76467896 292.44233704 C-0.7429626 285.35922765 -0.72480051 278.27611637 -0.70907402 271.19299126 C-0.68633117 260.95206666 -0.65819455 250.71116242 -0.62875474 240.47025514 C-0.58113285 223.85379564 -0.53785409 207.23732779 -0.49731445 190.62084961 C-0.457932 174.48249665 -0.4164992 158.3441511 -0.37231445 142.20581055 C-0.36822804 140.71287253 -0.36822804 140.71287253 -0.36405908 139.18977415 C-0.35037915 134.19652997 -0.33665897 129.2032859 -0.32291877 124.21004188 C-0.20903891 82.80671003 -0.10221084 41.40336219 0 0 Z " fill="#010102" transform="translate(643,376)"/>
<path d="M0 0 C2.2109375 1.22265625 2.2109375 1.22265625 4 3 C4.390625 5.48046875 4.390625 5.48046875 4.25 8.1875 C4.21390625 9.08855469 4.1778125 9.98960937 4.140625 10.91796875 C4.07101562 11.94857422 4.07101562 11.94857422 4 13 C2.02 13.99 2.02 13.99 0 15 C0 15.66 0 16.32 0 17 C-8.01284109 17.77046549 -8.01284109 17.77046549 -11.5625 15 C-13.54877707 10.85472611 -13.58199542 8.58321396 -13 4 C-9.03005422 -1.16092951 -6.21282214 -1.28541148 0 0 Z " fill="#16171A" transform="translate(307,654)"/>
<path d="M0 0 C4.81826218 0.84530916 6.34029694 1.93125503 9.5625 5.625 C10.42551172 10.0185142 10.0903601 11.82469598 7.625 15.5625 C4.03737333 17.97865674 1.90545081 18.3675028 -2.34375 18.10546875 C-4.4375 17.625 -4.4375 17.625 -7 15.5625 C-8.81531677 11.85293965 -9.09372237 9.70816143 -8.4375 5.625 C-5.86890902 1.96670376 -4.41498801 0.80272509 0 0 Z " fill="#141618" transform="translate(424.4375,571.375)"/>
<path d="M0 0 C3.5060303 0.86943897 4.94966563 2.56083702 6.9375 5.48046875 C7.7253128 9.89222045 7.46725133 11.70239649 4.9375 15.41796875 C0.82137501 18.24780468 -1.14025886 18.11559664 -6.0625 17.48046875 C-8.0625 16.10546875 -8.0625 16.10546875 -9.0625 14.48046875 C-9.0625 13.82046875 -9.0625 13.16046875 -9.0625 12.48046875 C-9.7225 12.48046875 -10.3825 12.48046875 -11.0625 12.48046875 C-11.47918469 8.23028496 -11.50272082 6.12704307 -9.0625 2.54296875 C-5.72661401 0.24954713 -3.96265906 -0.27768634 0 0 Z " fill="#141518" transform="translate(334.0625,490.51953125)"/>
<path d="M0 0 C0.7734375 -0.00773437 1.546875 -0.01546875 2.34375 -0.0234375 C5.04496595 0.47570023 5.88973254 1.16888434 7.5 3.375 C8.86518946 7.74033634 9.0539661 11.26706779 7 15.375 C3.71955721 17.99935423 1.68887854 18.4484891 -2.5 18.375 C-5.30189446 16.60858828 -7.01524911 15.34450178 -8.5 12.375 C-8.484375 10.31640625 -8.484375 10.31640625 -8.25 7.9375 C-8.18296875 7.15503906 -8.1159375 6.37257813 -8.046875 5.56640625 C-6.91253004 1.02092395 -4.46996774 -0.04469968 0 0 Z " fill="#131417" transform="translate(461.5,408.625)"/>
<path d="M0 0 C0.66 0.33 1.32 0.66 2 1 C-1.96 4.96 -5.92 8.92 -10 13 C-10 8.41771462 -7.08388033 6.1816619 -4 3 C-1.625 1.0625 -1.625 1.0625 0 0 Z " fill="#D1D2D2" transform="translate(317,473)"/>
<path d="M0 0 C0.556875 0.70125 1.11375 1.4025 1.6875 2.125 C4.09124732 5.11344261 6.53810432 8.05940238 9 11 C8.67 11.66 8.34 12.32 8 13 C6.68181446 11.56771184 5.37063296 10.12897516 4.0625 8.6875 C3.33160156 7.88699219 2.60070312 7.08648438 1.84765625 6.26171875 C0 4 0 4 -1 1 C-0.67 0.67 -0.34 0.34 0 0 Z " fill="#010102" transform="translate(136,764)"/>
<path d="M0 0 C3.86379545 3.00517424 6.90983192 5.45081065 9 10 C8.67 10.66 8.34 11.32 8 12 C6.66081194 10.37982158 5.3288031 8.75370657 4 7.125 C3.2575 6.22007812 2.515 5.31515625 1.75 4.3828125 C0 2 0 2 0 0 Z " fill="#000002" transform="translate(620,304)"/>
</svg>
